<svg xmlns="http://www.w3.org/2000/svg" xmlns:xlink="http://www.w3.org/1999/xlink" viewBox="0 0 898.49 871"><defs><style>.cls-1{fill:#fff;fill-rule:evenodd;}.cls-2{opacity:0.14;}.cls-3{mask:url(#mask);}.cls-4{opacity:0.58;}.cls-5{fill:url(#linear-gradient);}.cls-6{fill:url(#linear-gradient-2);}.cls-7{fill:url(#linear-gradient-3);}.cls-8{fill:url(#linear-gradient-4);}</style><mask id="mask" x="456.62" y="0" width="6.77" height="6.67" maskUnits="userSpaceOnUse"><g id="mask-2"><polygon id="path-1" class="cls-1" points="456.62 6.67 463.39 6.67 463.39 0 456.62 0 456.62 6.67"/></g></mask><linearGradient id="linear-gradient" x1="135.13" y1="855.3" x2="136.13" y2="855.3" gradientTransform="translate(33088.31 203098.79) rotate(180) scale(239.61 237.12)" gradientUnits="userSpaceOnUse"><stop offset="0" stop-color="#0699de"/><stop offset="1" stop-color="#09e4fe"/></linearGradient><linearGradient id="linear-gradient-2" x1="135.52" y1="855.72" x2="136.52" y2="855.93" gradientTransform="translate(20503.08 122814.57) rotate(180) scale(145.69 143.24)" gradientUnits="userSpaceOnUse"><stop offset="0" stop-color="#0699de" stop-opacity="0.08"/><stop offset="1" stop-color="#09e4fe"/></linearGradient><linearGradient id="linear-gradient-3" x1="135.61" y1="855.9" x2="136.61" y2="855.9" gradientTransform="translate(19381.58 117237.38) rotate(180) scale(136.93 136.09)" xlink:href="#linear-gradient"/><linearGradient id="linear-gradient-4" x1="136.14" y1="856.46" x2="137.14" y2="856.68" gradientTransform="translate(13297.48 79092.05) rotate(180) scale(91.51 91.48)" xlink:href="#linear-gradient-2"/></defs><title>Project-Page-PreFooter-BG-right</title><g id="Layer_2" data-name="Layer 2"><g id="Layer_1-2" data-name="Layer 1"><g id="asset-2"><g id="HP-Pre-Footer-Right-BG-element"><g id="Group-1372-Copy-3" class="cls-2"><path id="Fill-1" d="M768.35,592.58c-.67,0-2.34.43-3.43-.21-1.64-1-1.72-6.07-.44-7.34s4.1-.91,5.44.54c1.52,1.65,1.19,4.23-1.57,7"/><path id="Fill-3" d="M737.52,591.17c-1.91-1.84-2.16-4.14-.63-5.71a4.46,4.46,0,0,1,6.13.08,4.65,4.65,0,0,1,.26,6.16c-1.43,1.53-3.85,1.31-5.76-.53"/><path id="Fill-5" d="M737.32,566a4.17,4.17,0,0,1-.44-5.82c1.55-1.7,4.21-1.59,6.08.24a3.74,3.74,0,0,1,.1,5.7c-1.67,1.76-3.94,1.71-5.74-.12"/><path id="Fill-7" d="M717.84,591.4a4.24,4.24,0,0,1-6.22-.09c-1.72-1.95-1-3.83.44-5.52a3.87,3.87,0,0,1,5.67-.49,4.36,4.36,0,0,1,.11,6.1"/><path id="Fill-9" d="M845.41,465a4.36,4.36,0,0,1-6.13,0,4.41,4.41,0,0,1,.5-6.12,4.17,4.17,0,0,1,5.63,6.16"/><path id="Fill-11" d="M864.63,433.61a4.51,4.51,0,0,1,6.07.11c1.65,1.53,1.76,3.17.09,4.76a4.18,4.18,0,0,1-6,0c-1.6-1.48-1.68-3.48-.19-4.84"/><path id="Fill-13" d="M891.21,433.46c1.54-1.43,4.54-1.26,6.23.37s1.38,3.79-.71,5.54c-1.64,1.38-3.49,2.43-5.46.48-1.62-1.62-1.6-5-.06-6.39"/><path id="Fill-15" d="M763.67,559.87a3.72,3.72,0,0,1,5.2.37c1.33,1.59.85,4.14-1.19,5.94-1.36,1.2-2.83,2-4.3.17a5.22,5.22,0,0,1,.29-6.48"/><path id="Fill-17" d="M736.7,434a4.39,4.39,0,0,1,6.38-.24c1.73,1.6,1.57,3.27.06,4.85a4.27,4.27,0,0,1-5.85-.09c-1.65-1.51-1.83-3.16-.59-4.52"/><path id="Fill-19" d="M870.85,464.15c-1.58,1.36-4.15,1.1-6-.65-1.56-1.49-1.85-3.11-.17-4.66a4.86,4.86,0,0,1,6.1.05,3.55,3.55,0,0,1,.05,5.26"/><path id="Fill-21" d="M712.45,458.76c1.47-1.3,3.39-1.37,5.23.23a4.07,4.07,0,0,1,.05,6,4.45,4.45,0,0,1-6,.11c-1.72-1.38-1.47-4.2.72-6.35"/><path id="Fill-23" d="M640.85,592.63c-.73,0-2.4.36-3.51-.29-1.71-1-1.84-5.73-.53-7.12s4-1.22,5.43.29,1.21,4.43-1.39,7.12"/><path id="Fill-25" d="M737,312c-1.45-1.45-1.48-3.12.13-4.76a4.17,4.17,0,0,1,5.74-.27c1.76,1.5,2,3.18.37,4.89A4.51,4.51,0,0,1,737,312"/><path id="Fill-27" d="M769.33,438.41c-1.24,1.07-2.77,2.07-4.55.47-1.47-1.31-1.57-4.3-.31-5.52s4-1.13,5.48.26,1.17,2.93-.62,4.79"/><path id="Fill-29" d="M712.8,439.83a4.66,4.66,0,0,1,.16-5.95c1.56-1.82,3.2-1.85,4.82-.13a4.38,4.38,0,0,1,.23,5.87,3.44,3.44,0,0,1-5.21.21"/><path id="Fill-31" d="M895.91,465.08c-1.4,1.13-2.87,1.85-4.42,0s-1.94-5.38-.62-6.64,4-.76,5.45.86a4.17,4.17,0,0,1-.41,5.75"/><path id="Fill-33" d="M711.41,566a3.39,3.39,0,0,1,.75-5,4.33,4.33,0,0,1,5.84.74c1.58,1.81,1.34,3.46-.68,4.87a4.62,4.62,0,0,1-5.91-.58"/><path id="Fill-35" d="M615.64,438.75a3.52,3.52,0,0,1-5.11-.29c-1.45-1.61-1.5-3.28.06-4.86a3.18,3.18,0,0,1,5,.21,3.46,3.46,0,0,1,0,4.94"/><path id="Fill-37" d="M794.66,587.23c1.05,1.17,2.31,2.56.65,4.3-1.45,1.52-5,1.57-6.6.19s-1.33-3.9.33-5.38,3.48-1.11,5.62.89"/><path id="Fill-39" d="M840.47,540.94a4.56,4.56,0,0,1,.38-6.1c1.53-1.56,3.11-1.52,4.6,0a4.8,4.8,0,0,1,.24,6.17,3.57,3.57,0,0,1-5.22-.08"/><path id="Fill-41" d="M890.25,535.06c1.82-1.58,4.92-1.88,6.2-.48,1.73,1.88.46,3.52-1,4.86s-3.48,2.2-5.48.52c-1.59-1.34-1.41-3.43.3-4.9"/><path id="Fill-43" d="M814.21,535c1.53-1.42,3.27-1.87,5-.34,1.42,1.23,1.22,4.4-.26,6.18a3.13,3.13,0,0,1-5,.11,4.52,4.52,0,0,1,.22-5.95"/><path id="Fill-45" d="M839.8,484c1.33-1.17,3-1.22,4.58.27a4.31,4.31,0,0,1-.18,6c-1.48,1.44-3.17,1.93-4.86.35s-1.43-4.57.46-6.59"/><path id="Fill-47" d="M641.82,438.32c-1.8,1.26-3.6,2.16-5.61.47-1.79-1.51-2-4.06-.47-5.37a5.67,5.67,0,0,1,6.37.09c1.9,1.68.85,3.27-.29,4.81"/><path id="Fill-49" d="M839.35,433.54a3.37,3.37,0,0,1,4.95.07c1.33,1.46,1.73,3.08.25,4.74a3.65,3.65,0,0,1-5.2.49,3.79,3.79,0,0,1,0-5.3"/><path id="Fill-51" d="M610.46,312.12a3.23,3.23,0,0,1,.21-4.91c1.57-1.53,3.25-1.68,4.88-.1a3.29,3.29,0,0,1-.17,5.07c-1.68,1.5-3.33,1.3-4.92-.06"/><path id="Fill-53" d="M586.29,160.23c-2.52-2.57-2.74-5.72-1.12-7.31a3.24,3.24,0,0,1,4.86-.06c1.73,1.55,1.84,5,0,6.41-1.12.82-2.83.75-3.69,1"/><path id="Fill-55" d="M794.39,486c.92,1.36,3,2.78.71,4.76-1.44,1.29-4.6,1-6.23-.57s-1.5-3.3,0-4.87,3.58-1.25,5.56.68"/><path id="Fill-57" d="M768,617c-1.18.94-2.69,1.62-4.34.12s-1.76-4.23-.53-5.47,4.1-1.13,5.55.3,1.19,3.31-.68,5"/><path id="Fill-59" d="M769.79,459.21a4.3,4.3,0,0,1-.28,5.88c-1.4,1.33-2.93,1.64-4.38.08s-2-5.49-.94-6.65,4.2-.86,5.6.69"/><path id="Fill-61" d="M483.58,312c-2.34-2.3-2.3-4.57-.56-6.07s3.35-1.67,5-.11c1.4,1.32,1.29,4.64-.49,5.62-1.26.69-3.07.45-4,.56"/><path id="Fill-63" d="M713.57,279.49c.93.13,2.72,0,4,.62,2,1,2,4.14.2,5.56a3.61,3.61,0,0,1-4.76.27c-1.63-1.25-1.66-4.33.6-6.45"/><path id="Fill-65" d="M793.51,460.66c1,1.33,2.38,2.87.42,4.73a4.21,4.21,0,0,1-5.38-.31,4,4,0,0,1,.36-5.41c1.72-1.34,3.13-.52,4.6,1"/><path id="Fill-67" d="M736.65,459.31a4.48,4.48,0,0,1,6.4-.33c1.59,1.56,1.74,3.26.18,4.91s-4.23,1.47-6-.29c-1.5-1.45-1.72-3-.54-4.29"/><path id="Fill-69" d="M789.09,338.52c-1.77-2.17-1.87-5-.31-6.41s2.9-.86,4.21.19c1.84,1.45,2.64,4.76,1.13,5.48s-3.34.53-5,.74"/><path id="Fill-71" d="M643.15,310c-2.07,2.42-4.45,2.51-5.95.86-1.35-1.5-1.83-3.25-.42-5a3.51,3.51,0,0,1,5.48.49c.72,1.09.7,2.79.89,3.66"/><path id="Fill-73" d="M667,307.11c1.29,1.53,2.22,3.2.53,4.83a3.64,3.64,0,0,1-5.12.41,4,4,0,0,1-.25-5.44c1.65-1.62,3.27-.8,4.84.2"/><path id="Fill-75" d="M717.88,617a4.12,4.12,0,0,1-5.29.16c-1.28-1.25-1-4.08.72-5.41a3.32,3.32,0,0,1,4.7.08,3.62,3.62,0,0,1-.13,5.17"/><path id="Fill-77" d="M714,483.09c.95.19,2.76.15,4,.93,1.65,1.05,1.35,3.84-.26,5.16s-3.4,1.63-5.08.16c-1.36-1.2-1-4.18,1.37-6.25"/><path id="Fill-79" d="M610.75,159.29a4.35,4.35,0,0,1,0-6.24c1.47-1.41,3.12-1.81,4.75-.28s1.5,4.64-.22,6.33a3,3,0,0,1-4.53.19"/><path id="Fill-81" d="M763.37,408.72c1.89-1.82,4.94-2,6.47-.59,1.84,1.72.78,3.29-.57,4.59-1.65,1.57-3.74,2.5-5.76.76-1.76-1.5-1.16-3.35-.14-4.76"/><path id="Fill-83" d="M667,460.38c1.16,1.48,2.2,3.11.67,4.94-1.1,1.33-4.18,1.12-5.51-.19a3.84,3.84,0,0,1,.25-5.31c1.67-1.54,3.13-.69,4.59.56"/><path id="Fill-85" d="M763.6,310.53c-1.12-1.35-1.92-3-.28-4.83,1.3-1.41,4.61-1.13,6.25.47s1.75,3.11.1,4.69-4.06,1.56-6.07-.33"/><path id="Fill-87" d="M738.32,280.38a3.29,3.29,0,0,1,4.78.31c1.53,1.57,1.72,3.33,0,4.91a3.34,3.34,0,0,1-4.9.1,3.6,3.6,0,0,1,.09-5.32"/><path id="Fill-89" d="M818.89,566.24c-1.48,1.3-3.19,1.77-4.79.09a3.27,3.27,0,0,1,0-4.94c1.56-1.62,3.31-1.56,4.91-.08s1.53,3.22-.13,4.93"/><path id="Fill-91" d="M667.36,281.68a3.51,3.51,0,0,1,0,5.09c-1.45,1.44-3.86,1.58-5.07.16a3.8,3.8,0,0,1,0-5.2c1.11-1.4,3.78-1.34,5.13-.05"/><path id="Fill-93" d="M839.45,357.51a3.47,3.47,0,0,1,4.91.21c1.73,1.6,1.32,3.37-.15,4.86a3.43,3.43,0,0,1-4.78.48c-1.56-1.14-1.54-4.08,0-5.55"/><path id="Fill-95" d="M666.1,331.29c2.49,2.32,2.92,5.06,1.66,6.32a4.09,4.09,0,0,1-5.39-.21c-1.47-1.45-1.63-4.46.11-5.57,1.09-.69,2.85-.44,3.62-.54"/><path id="Fill-97" d="M890.06,489c.14-1.64-.19-3.52.53-4.88.83-1.61,4-1.29,5.5.27s1.66,3.36.21,5c-1.2,1.37-4,1.11-6.24-.39"/><path id="Fill-99" d="M640.5,719.15c-.67,0-2.41.31-3.47-.34-1.57-1-1.43-5.78.23-6.47a6.72,6.72,0,0,1,5,.28c1.65.86.92,4-1.78,6.53"/><path id="Fill-101" d="M539.6,179.77c1.07,1.4,1.9,3.06.23,4.8a3.81,3.81,0,0,1-5.22-.17,4,4,0,0,1-.07-5.35c1.27-1.2,3.4-1,5.06.72"/><path id="Fill-103" d="M611,179.17a3.16,3.16,0,0,1,4.54.18c1.72,1.59,1.29,3.42-.16,4.9a3.35,3.35,0,0,1-4.9.38c-1.53-1.27-1.41-3.6.52-5.46"/><path id="Fill-105" d="M713.12,407.09c1.52-1.6,3.06-1.35,4.54,0a4.27,4.27,0,0,1,.22,6.05c-1.5,1.47-3.23,1.75-4.91.32s-1.51-4.64.15-6.39"/><path id="Fill-107" d="M637.26,566.85c-1.65-1.62-1.72-4.42-.47-5.67s4.37-1.36,5.56,0c1.61,1.85.52,3.5-.83,4.9s-2.9,1.79-4.26.77"/><path id="Fill-109" d="M534.65,159.12c-1.29-1.68-1.59-3.58-.11-5.13s3.45-1,5,.32,1.69,3.87.24,5c-1.68,1.32-3.44,1.15-5.12-.2"/><path id="Fill-111" d="M788.72,363.71c-1.47-2.29-1.37-4.7.24-6.15a2.84,2.84,0,0,1,4.37.13c1.61,1.62,2.2,5.39.76,5.85-1.62.52-3.56.15-5.37.17"/><path id="Fill-113" d="M844.24,312.09c-1.67,1.35-3.35,1.6-5,.15a3.75,3.75,0,0,1,.23-5.29c1.67-1.47,3.43-1.13,4.89.27,1.66,1.6,1.37,3.32-.13,4.87"/><path id="Fill-115" d="M870.13,536.52a3.2,3.2,0,0,1-.77,4.61c-1.71,1.4-3.52,1.37-4.91-.46a3.48,3.48,0,0,1,.29-4.93c1.36-1.38,3.89-1,5.39.78"/><path id="Fill-117" d="M841.54,508.38c1,.24,2.79.22,4,1.06,1.72,1.22,1.51,4.61-.42,5.66a5.45,5.45,0,0,1-4.49.06c-1.79-1-1.48-4.5.92-6.78"/><path id="Fill-119" d="M483.81,160.23c-2.48-2.28-2.68-5.31-.74-6.51a5.83,5.83,0,0,1,4.63-.42c1.76.77,1.71,4.77-.11,6.08-1.1.79-2.91.67-3.78.85"/><path id="Fill-121" d="M692.5,413.2c-1.6,1.29-3.28,1.84-4.83.21a3.32,3.32,0,0,1-.18-4.87c1.35-1.56,4.12-1.84,5.36-.47,1.63,1.79.72,3.49-.35,5.13"/><path id="Fill-123" d="M787.68,615.76c.18-.91.1-2.72.89-3.88,1.17-1.73,4.16-1.32,5.86.6,1.11,1.25,2.64,2.63.89,4.51-1.54,1.64-5.2,1.36-7.64-1.23"/><path id="Fill-125" d="M814.15,591.89a3.68,3.68,0,0,1-.1-5.3c1.6-1.58,3.3-1.34,4.9-.06s1.65,3.35.1,4.92a3.46,3.46,0,0,1-4.9.44"/><path id="Fill-127" d="M843.56,407.19c2.39,2.38,2.54,5.45.59,6.61a5.52,5.52,0,0,1-4.58.22c-1.81-.94-1.71-4.9.15-6.14,1.15-.76,2.95-.56,3.84-.69"/><path id="Fill-129" d="M585.92,458.46c1.09-1,2.67-.91,4.2.37a3.25,3.25,0,0,1,.19,4.95c-1.59,1.4-3.45,1.75-5.23.33-1.48-1.17-1.22-3.66.84-5.65"/><path id="Fill-131" d="M793.85,561.31c1.44,1.62,1.4,3.17,0,4.66-1.59,1.68-4,1.93-5.29.57a4,4,0,0,1,.3-5.28c1.65-1.56,3.39-1.31,5,0"/><path id="Fill-133" d="M713.47,305.55c1.18-1.26,2.89-.91,4.34.71a3.76,3.76,0,0,1,0,5.54c-1.46,1.56-3.22,2-5,.49-1.56-1.37-1.44-4.46.6-6.74"/><path id="Fill-135" d="M539.45,307.26c1.37,1.54,2,3.13.41,4.79a3.93,3.93,0,0,1-5.3.27c-1.27-1.24-1.39-4.22,0-5.45,1.75-1.59,3.39-.74,4.94.39"/><path id="Fill-137" d="M610.61,591.51a3.45,3.45,0,0,1-.1-5.1c1.72-1.48,3.42-1.07,4.86.4s1.83,3.17.36,4.85a3.47,3.47,0,0,1-5.12-.15"/><path id="Fill-139" d="M768.19,539.44c-1.61,1.46-3.24,2.16-4.75.54a3.16,3.16,0,0,1,.12-4.8c1.53-1.43,3.46-2.21,5.16-.59s.45,3.45-.53,4.85"/><path id="Fill-141" d="M792.68,306.05c2.53,2.42,2.82,4.76,1.32,6a3.8,3.8,0,0,1-5.17.24c-1.43-1.13-1.6-5.08-.05-5.91,1.27-.68,3.1-.31,3.9-.36"/><path id="Fill-143" d="M869.8,413.19c-1.65,1.37-3.34,1.82-5.07.15a3.59,3.59,0,0,1-.12-5.18c1.75-1.51,3.57-1.15,5.11.36s1.35,3.07.08,4.67"/><path id="Fill-145" d="M642,284.45c-2.42,2.23-4.21,3-6.18,1.4a3.83,3.83,0,0,1,.1-5.37,3.92,3.92,0,0,1,5.53.32c.78.82.45,2.78.55,3.65"/><path id="Fill-147" d="M743.14,413.39c-2,1.51-3.76,1.35-5.13-.42a3.28,3.28,0,0,1,.48-5c1.9-1.57,3.55-.66,4.89.87a2.94,2.94,0,0,1-.24,4.51"/><path id="Fill-149" d="M819.08,514.38c-1.61,1.48-3.32,1.71-4.86.25a3.16,3.16,0,0,1-.11-4.94c1.52-1.53,3.38-1.84,5-.26s1.13,3.36-.06,4.95"/><path id="Fill-151" d="M686.48,433.47a3.41,3.41,0,0,1,5,.2c1.58,1.59,1.34,3.26-.21,4.77s-3.26,1.83-4.86.18-1.29-3.45.09-5.15"/><path id="Fill-153" d="M717.22,331.29c2.11,2.43,2.35,4.15.87,5.87a3.72,3.72,0,0,1-5.34.41c-1.28-1.35-1.34-4.7.33-5.67,1.27-.73,3.11-.48,4.14-.61"/><path id="Fill-155" d="M611.4,286.72c-2.39-2.19-2.49-4.67-.91-6.15a3.18,3.18,0,0,1,4.79,0c1.68,1.52,1.93,4.26.16,5.33-1.26.75-3.1.64-4,.8"/><path id="Fill-157" d="M814,408.39c1.6-1.52,4.17-1.62,5.35-.17,1.49,1.84.81,3.57-.7,5s-3.16,1.64-4.6.12a3.46,3.46,0,0,1-.05-5"/><path id="Fill-159" d="M407.36,184.8c-1.77-1.6-1.94-4.37-.54-5.61,1.64-1.45,3.33-1,4.73.3s2.31,3.26.58,4.93a3.62,3.62,0,0,1-4.77.38"/><path id="Fill-161" d="M787.68,515c.12-.9-.12-2.71.62-3.83,1.27-1.95,3.36-2,5.08-.44a3.84,3.84,0,0,1,.89,5.15c-.94,1.49-4.32,1.3-6.59-.88"/><path id="Fill-163" d="M357,153c.72.08,2.3-.23,3.31.46,1.56,1.08,1.24,4.5-.24,5.94-1.33,1.28-2.61,1-3.77-.26-1.42-1.49-1.38-3.94.7-6.14"/><path id="Fill-165" d="M739.36,618c-2.41-2.27-2.86-5-1.52-6.22,1.67-1.49,3.48-1.22,5.09.13,1.77,1.48,1.93,4,.06,5.3-1.1.74-2.8.63-3.63.79"/><path id="Fill-167" d="M843.29,389.12c-.86-.14-2.68,0-3.84-.72-1.7-1.08-1.47-4.38.11-5.64s3.49-1,5,.31,1.24,3.89-1.27,6.05"/><path id="Fill-169" d="M458.46,159c-2.31-2.06-2.53-4.94-1.07-6.23a3.52,3.52,0,0,1,5,.12c1.61,1.39,1.79,4.5.06,5.46-1.26.7-3.08.52-4,.65"/><path id="Fill-171" d="M641.93,464.14c-1.59,1.3-3.08,1.16-4.36-.47s-2.53-3.09-.86-5c1.18-1.38,4.26-1,5.57.61s1,3.34-.35,4.9"/><path id="Fill-173" d="M585.67,433.25c1.15-1.08,2.85-1,4.33.28,1.66,1.47,1.88,3.28.27,4.93a3.57,3.57,0,0,1-5,.4c-1.56-1.14-1.47-3.72.44-5.61"/><path id="Fill-175" d="M509.17,280.65a3.7,3.7,0,0,1,5.49.12c1.36,1.66.92,3.29-.41,4.56-1.52,1.43-3.39,2.09-5,.33a3.77,3.77,0,0,1-.09-5"/><path id="Fill-177" d="M585.47,280.4c1.32-1.26,2.92-1.22,4.48.2a4.23,4.23,0,0,1,.17,6.15,3.17,3.17,0,0,1-4.76.19c-1.65-1.45-1.65-4.69.11-6.54"/><path id="Fill-179" d="M539.59,210.82c-1.69-.4-3.6-.51-5-1.3-1.57-.89-1.27-4.22.21-5.22a3.52,3.52,0,0,1,4.78.53,4.36,4.36,0,0,1,0,6"/><path id="Fill-181" d="M839.53,332.07c1.53-1.25,3.27-.93,4.78.51a2.93,2.93,0,0,1,.15,4.59,3.64,3.64,0,0,1-5.27.4,4.06,4.06,0,0,1,.34-5.5"/><path id="Fill-183" d="M610.57,463.89c-1.36-1.65-1.61-3.28-.14-4.83a3.16,3.16,0,0,1,5-.09c1.5,1.5,1.72,3.33.15,5s-3.41,1.12-5-.05"/><path id="Fill-185" d="M788.55,387.75a3,3,0,0,1,.23-4.47c1.44-1.43,3.26-2.07,4.86-.38a3.79,3.79,0,0,1,.35,5.3c-1.09,1.38-3.78,1.18-5.44-.45"/><path id="Fill-187" d="M585.72,306.77c1.43-1.19,3.07-1,4.57.37a3.24,3.24,0,0,1-.39,5.12c-1.6,1.23-3.29,1.37-4.83-.08s-1.2-3.81.65-5.41"/><path id="Fill-189" d="M769.59,284.38c-2.28,2.51-4.92,3-6.17,1.55-1.53-1.72-1.23-3.61.07-5.29,1.16-1.52,4.79-1.58,5.73.12.62,1.14.31,2.86.37,3.62"/><path id="Fill-191" d="M661.22,489.51c.16-1,0-2.92.77-4,1.22-1.74,3.24-1.54,4.31.28a6.76,6.76,0,0,1,.78,4.72c-.52,1.65-3.79,1.31-5.86-1"/><path id="Fill-193" d="M662.32,210.82c-1.31-2.26-1.55-6.1-.15-6.88a3.93,3.93,0,0,1,3.7.27c1.47,1.1,1.84,5.41.7,6s-2.82.44-4.25.6"/><path id="Fill-195" d="M661.73,363.76c-2.31-2.66-2.08-4.41-.52-6a2.9,2.9,0,0,1,4.55-.09c1.49,1.43,2.07,5.31.74,5.8-1.64.61-3.63.27-4.77.31"/><path id="Fill-197" d="M483.61,279.49c.9.13,2.71,0,3.93.66,1.82,1.07,1.88,4.1.42,5.44a3.51,3.51,0,0,1-5,.13c-1.66-1.36-1.65-4,.68-6.23"/><path id="Fill-199" d="M406.86,158.93a3.47,3.47,0,0,1,.05-4.87c1.61-1.67,3.48-1.22,5,.31a3.39,3.39,0,0,1,.41,4.77c-1.18,1.52-3.89,1.44-5.45-.21"/><path id="Fill-201" d="M610.44,566.13c-1.18-1.49-1.5-3.32,0-4.88,1.68-1.75,3.5-1.15,5,.43s1.64,3.09.26,4.7a3.62,3.62,0,0,1-5.29-.25"/><path id="Fill-203" d="M535.42,331.29c.84.18,2.5.14,3.6.84,1.9,1.2,2.32,4.24,1,5.39-1.71,1.47-3.66,1.21-5.36,0s-1.49-4,.79-6.18"/><path id="Fill-205" d="M793.08,433.69c1.93,2.43,2.54,4.18.82,5.83-1.55,1.5-3.45,2-5.27.46-1.36-1.15-1.28-4.63.39-5.64,1.22-.74,3-.51,4.06-.65"/><path id="Fill-207" d="M788.86,408.51c1.53-1.5,3.27-1.86,4.93-.37s1.3,3.28-.11,4.81-3.1,2.05-4.92.67c-1.5-1.16-1.4-3.57.1-5.11"/><path id="Fill-209" d="M814.13,438.84a3.59,3.59,0,0,1,0-5.24c1.62-1.57,3.34-1.4,4.9,0a2.93,2.93,0,0,1,.2,4.59c-1.49,1.59-3.23,2.1-5.06.62"/><path id="Fill-211" d="M717.12,362.52c-1,0-2.76.36-4-.25-1.68-.79-1.65-4.5-.19-5.87,1.65-1.55,3.46-1.19,5,.17,1.86,1.67,1.45,3.5-.73,5.95"/><path id="Fill-213" d="M483.76,178.3c1.05.14,2.94-.05,4.23.71,1.67,1,1.12,3.87-.69,5.45-1.54,1.33-3.2,1.52-4.58-.06-1.54-1.77-1.24-3.64,1-6.1"/><path id="Fill-215" d="M662.53,433.38c1.82-1.45,3.5-1,4.92.49a3,3,0,0,1-.18,4.65c-1.54,1.51-4.15,1.62-5.23.16-1.38-1.85-.87-3.64.49-5.3"/><path id="Fill-217" d="M515.49,154.05c-.17.87,0,2.5-.75,3.51a3.62,3.62,0,0,1-5.52.34,3.68,3.68,0,0,1,.23-5.19c1.83-1.82,3.64-.69,6,1.34"/><path id="Fill-219" d="M686.15,310.73a3.43,3.43,0,0,1,.49-5,3.27,3.27,0,0,1,4.93.36c1.55,1.7,1.12,3.5-.49,4.9s-3.35,1.35-4.93-.28"/><path id="Fill-221" d="M635.93,408.47c2.28-1.6,5.52-1.73,6.59-.23,1.28,1.79.42,3.36-.83,4.62-1.53,1.54-3.54,2.37-5,.41-.82-1.11-.54-3.17-.76-4.8"/><path id="Fill-223" d="M407.27,57c-1.5-1.85-2-3.79-.46-5.42s3.34-1.1,4.78.25,2.2,3.18.68,4.88-3.37,1.2-5,.29"/><path id="Fill-225" d="M534.73,56.66c-1.17-1.58-1.8-3.48-.26-5.08s3.47-1.07,4.93.41,2,3.3.49,4.82-3.39,1.25-5.16-.15"/><path id="Fill-227" d="M387.82,154c-.13.79.1,2.6-.71,3.62-1.4,1.75-3.58,1.9-5.45.35-1.54-1.27-1.36-4,.19-5.38s3.56-1,6,1.41"/><path id="Fill-229" d="M590.31,179.48c1.51,1.67,1.41,3.36-.36,4.91-1.43,1.26-3,1.64-4.67.27a3.75,3.75,0,0,1,0-5.39c1.64-1.41,3.33-1.25,5,.21"/><path id="Fill-231" d="M716.08,381.89c2.08,2.25,2.29,5.3.71,6.51a4,4,0,0,1-3.78.43c-1.48-.75-1.65-4.89-.23-6.09,1-.82,2.54-.68,3.3-.85"/><path id="Fill-233" d="M662.34,408.41c1.76-1.34,3.51-1.83,5.13-.14s1.11,3.35-.28,4.75-3.34,2.05-5,.4-1-3.44.13-5"/><path id="Fill-235" d="M691,457.79c2.08,2.71,2,4.54.28,6.1-1.58,1.39-3.33,1.63-4.91-.06-1.41-1.49-1.39-4.69.34-5.56,1.36-.7,3.21-.39,4.29-.48"/><path id="Fill-237" d="M864.8,489.08c-1.29-1.56-1.86-3.38-.29-4.95s3.58-1.21,5.14.37a3.32,3.32,0,0,1,.29,4.71c-1.21,1.55-3.67,1.43-5.14-.13"/><path id="Fill-239" d="M589.5,331.29c2.2,2.39,2.44,4.11.8,5.77s-3.33,2.09-5.17.54c-1.43-1.21-1.33-4.56.42-5.62,1.18-.72,3-.54,4-.69"/><path id="Fill-241" d="M540.78,281.86c-.24,1.58-.08,3.4-.82,4.68-1,1.74-4,1.8-5.27.41a3.68,3.68,0,0,1-.15-5.17c1.15-1.48,3.92-1.44,6.24.08"/><path id="Fill-243" d="M819.08,463.67c-1.75,1.53-3.49,1.95-5,.21a3.36,3.36,0,0,1,.27-5.15c1.73-1.56,3.48-1,4.91.48s1.14,3.14-.15,4.46"/><path id="Fill-245" d="M789.12,536.07c1.6-1.18,3.31-1.89,4.88-.09s1,3.51-.48,4.94-3.35,1.69-4.92.1-.73-3.39.52-4.95"/><path id="Fill-247" d="M888.85,514.13c.12-.72-.06-2.17.61-3.15,1-1.52,5.1-1.91,6.09-.57a4,4,0,0,1,.09,3.79c-1.14,1.85-4.11,1.94-6.79-.07"/><path id="Fill-249" d="M483.58,439.72c-2.36-2.59-2.28-4.42-.57-6.1,1.44-1.4,3.06-1.57,4.61-.11s1.93,4.73.23,5.63c-1.34.71-3.22.46-4.27.58"/><path id="Fill-251" d="M820.2,488.5c-2.56,2.08-4.43,2.43-6.09.75a3.3,3.3,0,0,1,.1-5.06,3.35,3.35,0,0,1,5.21.28c.85,1.15.62,3,.78,4"/><path id="Fill-253" d="M615.2,414.42c-1.15-.16-3.15.11-4.3-.73-1.82-1.32-2-3.57-.37-5.38s3.33-1.27,4.84.16,1.88,3.29-.17,5.95"/><path id="Fill-255" d="M818.34,388.21c-1.14,1.26-2.78,1.19-4.17-.1a3.19,3.19,0,0,1-.06-4.93c1.46-1.47,3.5-1.81,5.09-.35,1.85,1.7.9,3.52-.86,5.38"/><path id="Fill-257" d="M713.15,534.89c1.48.25,3.28.09,4.38.87a3.22,3.22,0,0,1,.53,5,3.63,3.63,0,0,1-5.23.4c-1.49-1.15-1.33-3.87.32-6.3"/><path id="Fill-259" d="M635.9,152.64c2-1.76,3.59-.45,5,.92a2.68,2.68,0,0,1,0,4.22c-1.57,1.57-4.31,1.69-5.39.13a4.05,4.05,0,0,1,.37-5.27"/><path id="Fill-261" d="M716.25,260.79c-.91.83-2.19,1-3.41-.4s-1.41-4.21-.15-5.36c1.53-1.4,3-.9,4.29.45s1.11,3.53-.73,5.31"/><path id="Fill-263" d="M687.51,280.69c1.32-1.42,4.1-1.65,5.32-.3,1.49,1.65,1,3.37-.32,4.83s-3.1,2.14-4.88.58a3.61,3.61,0,0,1-.12-5.11"/><path id="Fill-265" d="M461.67,312c-1.05-.16-2.88,0-4.11-.74-1.67-1-1.32-4.23.34-5.57a3.25,3.25,0,0,1,4.78.27c1.64,1.78,1.29,3.62-1,6"/><path id="Fill-267" d="M793,286.72c-1.18-.19-3,0-4.33-.8-1.55-.94-1.24-4.25.25-5.48a3.44,3.44,0,0,1,5,.26c1.72,1.72.95,3.53-.91,6"/><path id="Fill-269" d="M737.1,332.94c2.24-2.05,4.87-2.08,6.27-.67s1.22,2.82-.12,4.11-4.5,1.28-5.52-.25c-.68-1-.51-2.47-.63-3.19"/><path id="Fill-271" d="M484.76,25.3c.73.1,2.28-.11,3.33.58,1.43.94,1.05,3.91-.41,5.52-1.2,1.31-2.48,1.6-3.8.23s-1.28-4,.88-6.33"/><path id="Fill-273" d="M589.83,261.42c-.79-.1-2.28.13-3.22-.53-1.58-1.1-1.65-4.52-.39-5.81,1.43-1.46,2.94-.94,4.11.32,1.49,1.62,1.41,3.48-.5,6"/><path id="Fill-275" d="M814,307.2a3.3,3.3,0,0,1,5-.12c1.6,1.42,1.59,3.16.1,4.72s-3.23,2-4.92.47-1.49-3.35-.17-5.07"/><path id="Fill-277" d="M463.13,279.49c1.9,2.56,2.5,4.44.66,6.19a3.14,3.14,0,0,1-4.78-.13c-1.56-1.67-2-3.87-.07-5.36,1-.81,3-.54,4.19-.7"/><path id="Fill-279" d="M738.28,541.2c-1.37-1.68-1.68-3.48-.22-5.17s3.41-1.2,4.94.12,1.81,3.15.31,4.72a3.49,3.49,0,0,1-5,.33"/><path id="Fill-281" d="M686.41,561.26a3.33,3.33,0,0,1,4.92,0c1.68,1.56,1.53,3.31,0,4.86s-3.26,1.83-4.81.29-1.51-3.47-.09-5.17"/><path id="Fill-283" d="M585.85,134.93c-1.82-2.4-2.36-6.07-.78-6.8a5.64,5.64,0,0,1,4.74.19c2.06,1.37,2,3.76.18,5.38-1,.86-2.73.85-4.14,1.23"/><path id="Fill-285" d="M566.07,157.24c-2.18,2.07-4.72,2.25-6.13,1s-1.45-2.82,0-4,3.85-1.81,5.43-.29c.84.82.56,2.56.69,3.31"/><path id="Fill-287" d="M558.85,310.49c.16-1.11-.05-3,.77-4.23,1.26-1.89,3.42-1.89,5.17-.39s1.67,3.22.14,4.84-3.35,1.91-6.08-.22"/><path id="Fill-289" d="M687.63,534.89c1.62.15,3.45-.08,4.81.55,1.74.82,1.75,3.77-.06,4.83a5.92,5.92,0,0,1-4.52.34c-1.78-.75-1.73-3.51-.23-5.72"/><path id="Fill-291" d="M660,387.5c.17-1.16-.1-3.08.73-4.15a3.31,3.31,0,0,1,5.16-.41c1.58,1.54,1.89,3.5.19,5.17s-3.55,1.16-6.08-.61"/><path id="Fill-293" d="M566,284.94c-2.62,2.25-4.48,2.27-6.07.59a3.1,3.1,0,0,1,.08-4.76c1.7-1.51,4.1-1.86,5.56-.08.86,1,.36,3.23.43,4.25"/><path id="Fill-295" d="M640,745.68c-.56-.06-1.93.26-2.73-.36-1.67-1.29-1.83-5.44-.21-6.46a4.06,4.06,0,0,1,3.87.27c1.63,1.11,1.3,3.94-.93,6.55"/><path id="Fill-297" d="M360.86,184.32a2.83,2.83,0,0,1-4.43.26c-1.51-1.31-1.58-4.45.24-5.53a6.1,6.1,0,0,1,4.79-.45c1.73.74,1.23,3.9-.6,5.72"/><path id="Fill-299" d="M691.19,618c-1.59-.23-3.55.06-4.67-.81-1.74-1.38-1.48-3.56,0-5.3a3.33,3.33,0,0,1,5.09.14c1.34,1.71,1.27,3.45-.41,6"/><path id="Fill-301" d="M357,312c-2.13-2.43-2.1-4.28-.73-6,1.14-1.39,2.66-1.79,4.13-.44,1.24,1.15,1.3,4.47-.15,5.58-.95.73-2.45.64-3.25.82"/><path id="Fill-303" d="M591.36,587.34c-.22,1-.09,3-1,4.08a3.45,3.45,0,0,1-5.35.06c-1.54-1.61-.84-3.44.55-4.86,1.6-1.64,3.35-1.59,5.8.72"/><path id="Fill-305" d="M411.56,204.8c1.48,2.34,2.3,4.32.61,5.61-.91.69-3,.43-4.22-.17s-1.08-4.08.26-4.88c1-.59,2.43-.43,3.35-.56"/><path id="Fill-307" d="M686.51,510c2.65-1.9,4.6-2.24,6.23-.56s1.25,3.4-.33,4.87-3.88,1.81-5.21,0c-.85-1.17-.54-3.12-.69-4.27"/><path id="Fill-309" d="M712.9,509.23c1.37-1.44,2.65-.85,3.75.33,1.4,1.48,1.64,3.29.24,4.82-1.19,1.3-2.83,1.8-4.32.35-1.18-1.16-.93-4.13.33-5.5"/><path id="Fill-311" d="M690.78,636.08c2.22,2.54,2.21,4.42.67,6a3.34,3.34,0,0,1-4.93.22c-1.55-1.34-1.69-4.39.05-5.44,1.29-.78,3.14-.63,4.21-.81"/><path id="Fill-313" d="M566.07,183.67c-2.52,2-4.44,2.5-6.11.87a3.24,3.24,0,0,1,.16-5c1.68-1.6,3.82-1.72,5.19.07.83,1.08.6,3,.76,4.07"/><path id="Fill-315" d="M691.25,332.35c1.56,1.63,1.78,3.26.21,4.86s-3.32,1.82-4.93.37-1.53-3.49-.1-5.13,3.24-1.32,4.82-.1"/><path id="Fill-317" d="M590,356.65c1.83,2.36,1.74,4.2.18,5.34a4.28,4.28,0,0,1-3.81.32c-1.52-.84-1.31-4.41.33-5.37,1-.59,2.51-.24,3.3-.29"/><path id="Fill-319" d="M686.49,586.39c1.46-1.27,3.17-1.21,4.77.2s1.71,3.07.19,4.66-3.08,2.07-4.91.65a3.74,3.74,0,0,1,0-5.51"/><path id="Fill-321" d="M820.2,332.16c-.2,1.33,0,2.86-.7,3.94-1,1.51-4.12,1.65-4.84.23-.61-1.23-.7-3.32.09-4.27s2.94-.56,4.5-.77l1,.87"/><path id="Fill-323" d="M462.21,178.3c1.91,2.46,1.87,4.23.51,5.84-1.15,1.35-2.62,2.07-4,.47a3.89,3.89,0,0,1,0-5.39c.84-.86,2.52-.72,3.43-.92"/><path id="Fill-325" d="M662.92,236.12c-2-1.88-2.23-4.36-.69-5.37a4.41,4.41,0,0,1,3.71-.4c1.5.76,1.77,4.64.48,5.31s-2.71.38-3.5.46"/><path id="Fill-327" d="M566.07,414.42c-2.71-.38-4.63-.13-5.86-1-1.71-1.16-1.81-3.24-.32-5,1.32-1.54,4.68-1.85,5.5-.24.71,1.39.42,3.3.68,6.16"/><path id="Fill-329" d="M692.54,485.31c-.28,1.63-.08,3.59-.95,4.8a3.24,3.24,0,0,1-5,.43,3.32,3.32,0,0,1,0-5.23c1.15-.92,3.21-.72,4.87-1l1.09,1"/><path id="Fill-331" d="M863.56,333c2.27-2.13,4.82-2.17,6.25-.72,1.25,1.28,1.34,2.63,0,3.93a3.83,3.83,0,0,1-5.45-.08c-.73-.92-.66-2.41-.84-3.13"/><path id="Fill-333" d="M870.79,511.32c-.13.7,0,2.17-.65,3.16-1.07,1.53-3.9,1.45-5.41.11s-1.58-2.76-.22-4.15,3.9-1.17,6.28.88"/><path id="Fill-335" d="M458.1,32.53c-1.88-2.62-2.25-4.51-.5-6.18s3.56-1.31,5,.33,1.55,4-.29,5.27c-1.13.81-3.07.46-4.19.58"/><path id="Fill-337" d="M609.43,332.53c2.14-1.5,4.68-1.71,5.57-.2a4.07,4.07,0,0,1,0,3.69,3,3,0,0,1-4.73.26c-.78-.81-.61-2.48-.86-3.75"/><path id="Fill-339" d="M589.55,407.19c2.13,2,2.37,4.48.8,5.44a4.77,4.77,0,0,1-3.87.3c-1.5-.67-1.52-3.95,0-5,.92-.67,2.41-.58,3.09-.71"/><path id="Fill-341" d="M691,686.68c1.86,2.48,2,4.36.67,6-1.17,1.42-2.67,1.68-4.07.29s-1.49-4.53-.09-5.52c1.06-.75,2.6-.61,3.49-.79"/><path id="Fill-343" d="M508.26,182.71c.14-.82,0-2.4.68-3.48,1-1.51,3.76-1.09,5.46.56,1.16,1.12,1.61,2.3.24,3.59s-4.14,1.35-6.38-.67"/><path id="Fill-345" d="M356.75,286.72c-1.72-2.59-2-4.45-.43-6.19,1.23-1.38,2.62-1.39,3.91,0s1.52,4.56,0,5.61c-1,.67-2.52.47-3.44.61"/><path id="Fill-347" d="M614.8,738.48c2.08,2.45,2.44,4.3.94,6.07-1.1,1.3-2.51,1.69-3.87.21s-1.74-4.62-.31-5.62c1-.68,2.49-.52,3.24-.66"/><path id="Fill-349" d="M716.4,210.8c-.9-.07-2.44.25-3.57-.36-1.32-.72-1.39-4.6-.06-5.27a4.44,4.44,0,0,1,4,.24c1.59,1.13,1.25,3.07-.4,5.39"/><path id="Fill-351" d="M667.24,260.92c-2.46,2.09-4.45,2.27-5.54.47a5.61,5.61,0,0,1,0-4.64c.9-1.76,4.09-1.8,4.93-.13.68,1.37.44,3.23.56,4.3"/><path id="Fill-353" d="M661.33,128.65c1.67-1.11,3.45-1.45,5,.08s1,3.53-.72,4.54a5.26,5.26,0,0,1-4.31,0c-1.87-1.22-1.45-3.05.07-4.6"/><path id="Fill-355" d="M462.14,127.7c1.76,2.54,2.12,4.38.61,6.2-1.22,1.47-2.53,1.28-3.75-.05-1.49-1.62-1.85-4.78-.42-5.66,1.09-.67,2.64-.4,3.56-.49"/><path id="Fill-357" d="M661.37,588.05c2.58-1.91,4.28-1.64,5.74-.23,1.27,1.23,2,2.66.4,4.08-1.38,1.18-5.3,1.08-6-.31-.58-1.18-.14-2.73-.15-3.54"/><path id="Fill-359" d="M611.5,719.21c-2.4-2.4-2.62-5-1.14-6.33,1.8-1.58,3.51-.89,4.93.57,1.57,1.62,2,3.69.06,5.09-1.13.8-3,.54-3.85.67"/><path id="Fill-361" d="M640.18,693.89c-.81-.07-2.27.25-3.28-.39-1.34-.86-1.24-4.42,0-5.64s3-1.75,4.34-.07.63,3.68-1,6.1"/><path id="Fill-363" d="M688.31,661.38c1.09.19,3,0,4.11.8a2.69,2.69,0,0,1-.1,4.69,5.45,5.45,0,0,1-4.65,0c-1.78-1.21-1.46-3.19.64-5.52"/><path id="Fill-365" d="M667.24,511.13c-.16,1,.15,2.76-.71,3.55-1.56,1.43-3.85,1.11-5.49-.26s-1.29-2.84.22-4c1.73-1.35,3.55-.95,6,.73"/><path id="Fill-367" d="M509.46,436.84c.08-.77-.15-2.33.44-3.42.73-1.36,3.65-1.15,4.8.11,1.35,1.45.78,2.91-.36,4.06-1.33,1.35-2.84,1.31-4.88-.75"/><path id="Fill-369" d="M668.45,616.65c-2,1.8-5.84,1.77-6.8.18a4.23,4.23,0,0,1,.05-3.81c1-1.57,4.2-1.29,5.6.46a9.21,9.21,0,0,1,1.15,3.17"/><path id="Fill-371" d="M459.18,332c1-1,2.32-1,3.54.4a3.36,3.36,0,0,1-.07,4.8c-1.18,1.31-2.66,1.93-4.19.55-1.25-1.12-1-3.91.72-5.75"/><path id="Fill-373" d="M895.29,407.19c1.35,5.47,1.07,6.69-1.63,7.15-1.94.34-3.23-.45-3.55-2.48-.41-2.6,1.61-4.47,5.18-4.67"/><path id="Fill-375" d="M535.12,230.15c.71,0,2.18-.29,3.12.31,1.55,1,1.83,4.41.42,5.25a4.38,4.38,0,0,1-4-.14c-1.7-1.16-1.44-3.06.43-5.42"/><path id="Fill-377" d="M560.39,331.29c1.18.19,3.07,0,4.23.77,1.7,1.12,2.06,3.29.24,4.5-1.15.76-3.63,1.05-4.73.4-1.9-1.12-1.59-3.17.26-5.67"/><path id="Fill-379" d="M589.67,490.29c-.85-.05-2.39.24-3.54-.36s-1-4.61.56-5.37a4.06,4.06,0,0,1,3.75.47c1.58,1.28,1,3.07-.77,5.26"/><path id="Fill-381" d="M331.57,159c-1.68-2.15-2.16-3.75-.67-5.19a2.67,2.67,0,0,1,4,.19c1.36,1.4,1.55,3.25.06,4.45-.88.7-2.53.44-3.42.55"/><path id="Fill-383" d="M814.18,362.8c.26-1.67.12-3.67.88-4.93,1.06-1.78,2.84-1.62,4.18,0a3.34,3.34,0,0,1,0,4.72c-1.06.92-2.73.87-4.13,1.26l-.9-1"/><path id="Fill-385" d="M534.64,255.4c1.68.24,3.74,0,5,.82,1.75,1.1,1.45,2.94-.13,4.24a3.4,3.4,0,0,1-4.79,0c-.9-1.05-.78-2.72-1.12-4.11l1.09-.91"/><path id="Fill-387" d="M438.4,157.75c-2.17,1.53-4.73,1.77-5.62.23a4,4,0,0,1,.07-3.62c1.26-1.48,3.33-2,4.81-.34.71.8.52,2.46.74,3.73"/><path id="Fill-389" d="M687.4,381.89c1.41.23,3.1,0,4.17.77,1.5,1,1.08,2.84-.08,4s-3.09,1.78-4.24.28c-.77-1-.53-2.78-.74-4.22.3-.29.6-.58.89-.88"/><path id="Fill-391" d="M539.58,434.25c-.16,1,0,2.84-.73,3.91-1.09,1.61-3,2.29-4.45.46a3.78,3.78,0,0,1,.22-5c1.36-1.69,2.83-1.49,5,.63"/><path id="Fill-393" d="M284.78,178.3c2,2.29,2.62,4.22.71,5.41a5.45,5.45,0,0,1-4.71.14,2.93,2.93,0,0,1,0-4.92c1-.8,3-.5,4-.63"/><path id="Fill-395" d="M591.36,210.79c-2.61-.09-5.27.26-5.44-.27-.58-1.76-.88-4.18-.13-5.72.9-1.8,3.31-1.44,4.38.12.84,1.24.71,3.2,1.19,5.87"/><path id="Fill-397" d="M585.34,561.89c2.18-2.2,3.7-2.14,5-.56a3.44,3.44,0,0,1,.1,4.73c-1.42,1.66-3.32,1.91-4.51.11-.76-1.16-.49-3.2-.62-4.28"/><path id="Fill-399" d="M437.41,184.32c-1.73-.2-3.82.08-5.12-.72-1.6-1-1.39-2.93.13-4.15s3.77-1.74,5.21-.12c.83.91.56,2.66.77,4l-1,1"/><path id="Fill-401" d="M408.05,127.7c1.35.31,3,.2,4,1,1.58,1.34,1.32,3.38,0,4.95s-3.22,1.67-4.27-.1c-.73-1.23-.48-3.23-.67-4.89l1-1"/><path id="Fill-403" d="M789.07,261.42c-1.83-2.16-1.74-3.57-.39-4.91,1.13-1.12,2.31-1.74,3.55-.16,1.09,1.4,2.44,3,.48,4.46-1,.73-2.72.48-3.64.61"/><path id="Fill-405" d="M537.58,133.72c-.94-.14-2.83.1-3.91-.67a2.77,2.77,0,0,1,.07-4.77,5.34,5.34,0,0,1,4.63-.1c1.91,1.23,1.47,3.2-.79,5.54"/><path id="Fill-407" d="M538.33,83.12a9.56,9.56,0,0,1-3.39-.53c-1.58-.85-1.91-4.18-.46-5a4.89,4.89,0,0,1,3.83-.11c1.61.74,1.75,3.87,0,5.68"/><path id="Fill-409" d="M566.07,439.72c-2.74-.33-4.69,0-5.77-.81a3.3,3.3,0,0,1-.34-5.21c1.52-1.54,3.69-1.7,4.94,0,.88,1.22.69,3.2,1.17,6"/><path id="Fill-411" d="M386.62,127.7c-.44,2.35-.24,4-1,4.94a2.84,2.84,0,0,1-4.48,0,4.46,4.46,0,0,1,.05-4.3c.66-.79,2.86-.4,5.45-.62"/><path id="Fill-413" d="M483,0c2.31.31,4,0,4.93.78,1.68,1.43,1.23,3.64-.09,5.23s-3,1.77-4,0C483.08,4.8,483.3,2.79,483,0"/><path id="Fill-415" d="M589.86,389.12c-.89-.12-2.39.08-3.44-.54-1.42-.85-1.4-4.72-.16-5.88,1.48-1.39,2.94-.83,4.11.48,1.49,1.68,1.29,3.51-.51,5.94"/><path id="Fill-417" d="M285.44,153c-.34,2.33-.05,4.07-.83,4.93a3,3,0,0,1-4.71-.14c-.66-1-.65-3.29.11-4s2.88-.5,5.43-.8"/><path id="Fill-419" d="M762.39,514.1c.19-1,.14-2.43.76-3.4,1-1.47,4.39-1.49,5,0a4.64,4.64,0,0,1-.36,3.84c-1.33,1.64-3.18,1.36-5.41-.43"/><path id="Fill-421" d="M508.26,310.49c.11-.85-.23-2.57.57-3.45,1.56-1.73,3.67-1.07,5.37.23,1.44,1.11,1.85,2.48.3,3.73-1.72,1.39-3.62,1.48-6.24-.51"/><path id="Fill-423" d="M461.87,254.19c2.14,2.09,2.39,4.64.81,5.6a4.25,4.25,0,0,1-3.67,0c-1.57-.92-1.81-4.42-.43-5.2,1.05-.6,2.59-.35,3.29-.42"/><path id="Fill-425" d="M411.6,77.1c1.6,2.59,2.16,4.48.55,6.23a2.41,2.41,0,0,1-4-.08c-1.36-1.7-1.55-3.89,0-5.42.78-.79,2.48-.56,3.45-.73"/><path id="Fill-427" d="M563.5,209.62c-1-.17-2.74,0-3.72-.74-1.44-1.14-1.07-3,.14-4.34s2.76-1.19,4,0,1.22,2.87-.43,5.05"/><path id="Fill-429" d="M481.76,336.11c.27-1.08.16-2.7,1-3.67a3.58,3.58,0,0,1,5-.25c1.6,1.23,1.55,2.8.15,4.08-1.58,1.44-3.49,1.4-6.18-.16"/><path id="Fill-431" d="M535.73,459c1.23.28,2.7.21,3.62.93,1.54,1.21,2.07,3.42.42,4.65a4.39,4.39,0,0,1-4.35-.3c-.8-.66-.48-2.85-.66-4.35l1-.93"/><path id="Fill-433" d="M483,459.68c2.33-2.16,4.26-2.58,5.42-.7a5.64,5.64,0,0,1,.15,4.73c-1.14,1.89-3.39,1.59-4.62,0-.83-1.09-.74-3-.95-4"/><path id="Fill-435" d="M713.51,636.08c1.41.34,3.14.29,4.17,1.11a3,3,0,0,1,.19,4.89c-1.54,1.47-3.6,1.73-5.15.2-1.77-1.75-.68-3.62.79-6.2"/><g id="Group-439"><g id="Fill-437-Clipped"><g class="cls-3"><path id="Fill-437" d="M458.55,6.67c-1.68-2.33-2.85-4-1-5.71,1.6-1.49,3.35-1.14,4.74.3s1.46,3.46-.17,4.68c-1,.74-2.63.56-3.6.73"/></g></g></g><path id="Fill-440" d="M737.1,488.74c.16-.95-.08-2.65.73-3.5a3.05,3.05,0,0,1,4.74.41,3.78,3.78,0,0,1,.11,3.72c-1.33,1.6-3.25,1-5.58-.63"/><path id="Fill-442" d="M763.82,335.53c0-.8-.58-2.62.13-3.35,1.55-1.61,3.71-.81,4.89.68.71.89,1.07,3,.48,3.64-1.41,1.56-3.25.7-5.5-1"/><path id="Fill-444" d="M413.11,306.88c-.21,1.35,0,3-.73,4a2.84,2.84,0,0,1-4.29.36c-1.35-1.1-1.37-3.73.19-4.61,1.05-.61,2.59-.43,3.92-.61l.91.89"/><path id="Fill-446" d="M744.32,637.29c-.36,2.28-.11,3.9-.9,4.9-1.31,1.67-3.36,1.32-4.9,0s-2.14-3.15-.31-4.29c1.19-.75,3.3-.39,6.11-.6"/><path id="Fill-448" d="M386.62,180.25c-.1.6.08,2-.54,2.92-1,1.48-4.16,1.56-5,.08a4.66,4.66,0,0,1-.1-3.93c.89-1.62,3.36-1.33,5.64.93"/><path id="Fill-450" d="M514.28,132.52c-2.57,1.41-4.62,1.77-5.7,0a4.08,4.08,0,0,1,.5-4c1.5-1.62,3.58-.84,4.7.66.66.89.39,2.37.5,3.26"/><path id="Fill-452" d="M533.55,357.8c2.44.24,4.61,0,5.06.62a6,6,0,0,1,.81,4.58c-.31,1.21-4,1.07-5-.34-.7-1.08-.53-2.62-.9-4.86"/><path id="Fill-454" d="M356.24,127.7c1.3.2,2.93,0,3.86.7a3,3,0,0,1,.1,4.72c-.82.72-3.36.81-3.82.19-.86-1.18-.77-3.08-1.08-4.68l.94-.93"/><path id="Fill-456" d="M636,335.51c0-.84-.38-2.61.33-3.32,1.66-1.66,3.79-.78,5,.72.65.79.8,2.84.21,3.52-1.5,1.7-3.3.71-5.57-.92"/><path id="Fill-458" d="M463.7,57.81c-2.33-.1-3.83.26-4.9-.33-1.45-.8-1.52-4.44-.08-5.23,1-.58,3.15-.64,3.8.09.84,1,.71,3,1.18,5.47"/><path id="Fill-460" d="M589.62,228.89c2.21,2.44,2.19,4.15.69,5.82-1.3,1.46-3.25,2.1-4.26.38a7.12,7.12,0,0,1-.33-5.41c.26-.73,2.87-.61,3.9-.79"/><path id="Fill-462" d="M334.39,184.32c-.82-.11-2.48.2-3.3-.54a3.22,3.22,0,0,1,.1-4.9,3.76,3.76,0,0,1,3.78-.14c1.67,1.29,1.28,3.24-.58,5.58"/><path id="Fill-464" d="M716.38,236.1c-.81-.06-2.28.24-3.33-.36-1.43-.79-1.71-4.57-.4-5.25a4.53,4.53,0,0,1,4.09.2c1.61,1.11,1.38,3.05-.36,5.41"/><path id="Fill-466" d="M642,132.15c-2.1,1.93-5.09,2-5.72.54a4.63,4.63,0,0,1,.31-4c1.39-1.68,3.43-1.07,4.67.41.69.82.58,2.31.74,3"/><path id="Fill-468" d="M412.1,286.72c-1.68-.2-3.67,0-5-.72-1.74-1-1.54-2.95-.11-4.24a3.56,3.56,0,0,1,5.27.21c.79.91.58,2.53.82,3.83l-1,.92"/><path id="Fill-470" d="M870.79,383c-.23,1.24-.08,2.7-.75,3.67-1.12,1.6-4.16,1.6-5.49.19s-1.4-2.78.05-4.1,3.95-1.18,6.19.24"/><path id="Fill-472" d="M564.87,83.12c-2.35-.2-3.87.08-5-.54-1.32-.69-1.34-4.35,0-5.06a4.08,4.08,0,0,1,4,.2c.79.71.6,2.84,1,5.4"/><path id="Fill-474" d="M769.62,488.88c-2.58,1.95-4.31,1.75-5.82.36-1.33-1.22-2.16-2.81-.44-4.12a3.86,3.86,0,0,1,5.32.52c.8.91.73,2.42.94,3.24"/><path id="Fill-476" d="M431.18,51.81c2.78.14,4.79-.31,6.16.45,1.54.88,1.32,2.84-.08,4.17s-3.54,2-5.07.47c-.81-.83-.59-2.69-1-5.09"/><path id="Fill-478" d="M642,540.91c-2.18-.36-3.81-.12-4.84-.93a2.83,2.83,0,0,1,0-4.59c1.3-.82,3.19-.36,4.81-.47,0,1.64,0,3.29.05,6"/><path id="Fill-480" d="M636.82,615.55c-.78-1.45-1.62-3.45.17-4.52,1-.59,3.18,0,4.2.82,1.37,1.17.71,3-.57,4.11s-2.55,1.28-3.8-.41"/><path id="Fill-482" d="M330,133.72c.05-2.6.08-4.3.11-6,1.47.1,3.29-.28,4.34.39,1.78,1.14,2.18,3.26.51,4.75-.81.72-2.58.5-5,.86"/><path id="Fill-484" d="M489,209.62c-2.53-.13-4.27.12-5.69-.48-.43-.18-.5-3,.13-4.07a2.72,2.72,0,0,1,4.62-.36c.71.81.53,2.53.94,4.91"/><path id="Fill-486" d="M762.39,383.7c2-2.11,4.93-2.39,5.76-.76a4.83,4.83,0,0,1-.35,3.86c-.92,1.55-3.93,1.45-4.89-.1-.56-.91-.42-2.33-.52-3"/><path id="Fill-488" d="M667.24,638.86c-.09.86.15,2.37-.43,3.39-.82,1.44-4.28,1.42-5.13-.08a4.3,4.3,0,0,1,0-3.83c1.33-1.67,3.24-1.25,5.58.52"/><path id="Fill-490" d="M386.62,51.8c-.37,2.4-.12,4.13-.86,4.94a3,3,0,0,1-4.73-.17c-.64-.91-.56-3.4.14-4,1-.81,2.88-.5,5.45-.8"/><path id="Fill-492" d="M483,132.85c.29-1.43.17-3.16,1-4.21,1.07-1.38,3-1.17,4.16.18s1.24,3.22-.39,4.27c-1,.64-2.58.45-3.9.63l-.85-.87"/><path id="Fill-494" d="M535.19,102.4c.83.08,2.32-.15,3.34.43,1.4.79,1.4,4.33,0,5.16a4.33,4.33,0,0,1-3.83,0c-1.79-1.33-1.23-3.22.54-5.56"/><path id="Fill-496" d="M461.89,210.8c-.66-.06-2.21.24-3.26-.36-1.37-.78-1.24-4.33.24-5.22a4.25,4.25,0,0,1,3.73,0c1.64,1,1.47,3.32-.71,5.56"/><path id="Fill-498" d="M564,465c-1.28-.31-3.28-.18-3.67-1-.58-1.3,0-3.29.05-5,1.34.16,3.09-.22,3.91.63s.44,2.89.6,4.41l-.89,1"/><path id="Fill-500" d="M432.38,82.07c.33-1.7.28-3.69,1.08-5,1.05-1.71,2.8-1.45,4.06.13a3.31,3.31,0,0,1-.23,4.75c-1,.87-2.67.82-4,1.17l-.88-1.05"/><path id="Fill-502" d="M743.12,384.2c-.43,1.2-.54,3.15-1.36,3.43a6.74,6.74,0,0,1-4.9-.38c-1.55-1-1.14-3.07.57-3.83,1.31-.59,3.21-.18,4.84-.22.29.33.57.66.85,1"/><path id="Fill-504" d="M686.51,356.59c2.59.46,4.65.32,5.49,1.13s.69,2.8,0,3.68a3.18,3.18,0,0,1-4.81.22c-.81-.95-.41-2.67-.66-5"/><path id="Fill-506" d="M566.07,261.42c-2.64-.4-4.78-.17-5.6-1s-.46-3.11.34-4a3,3,0,0,1,4.65.26c.69.92.37,2.49.61,4.78"/><path id="Fill-508" d="M691.52,261.42c-1.59-.25-3.78.06-4.6-.9s-.44-3.71.42-4.51,3.4-.8,4.46,0c.83.59.53,2.87.74,4.4l-1,1.05"/><path id="Fill-510" d="M229.93,159c-1.46-2.59-1.49-4.56.11-5.71.83-.6,2.39.05,3.62.13-.21,1.81-.15,3.73-.77,5.35-.19.5-2.17.19-3,.23"/><path id="Fill-512" d="M737.1,515.61c.42-2.42.17-4.16,1-5,1.54-1.62,3.66-1.13,5.19.33,1.3,1.26,1.55,3.05-.21,3.94-1.34.68-3.21.45-6,.74"/><path id="Fill-514" d="M560.05,383.68c2.13-2.14,3.69-2.31,5.1-.78s1.21,3.32-.21,4.25c-1.12.74-3.14,1.07-4.08.4s-.63-2.85-.81-3.87"/><path id="Fill-516" d="M614.59,260.22c-1.54-.16-3.67.19-4.46-.62s-.92-3.08-.29-4.18a2.7,2.7,0,0,1,4.39-.2c.88,1,.85,2.7,1.22,4.09l-.86.91"/><path id="Fill-518" d="M437.26,127.7c1.58,2.23,1.47,3.58,0,4.88s-3.26,1.58-4.82.27-1.82-3.18-.12-4.28c1.24-.8,3.25-.62,4.93-.87"/><path id="Fill-520" d="M661.24,536.52c2.17-1.87,3.73-2.16,5.2-.72s.84,2.74-.33,3.86c-1.33,1.28-3.17,1.88-4.42.32-.72-.91-.37-2.64-.45-3.46"/><path id="Fill-522" d="M407.09,230.1c2.34.29,4,0,4.88.7a2.73,2.73,0,0,1,.14,4.34,2.69,2.69,0,0,1-4.25-.12c-.73-1-.46-2.61-.77-4.92"/><path id="Fill-524" d="M463.7,230.1c-.53,2.26-.43,3.82-1.25,4.83-1,1.24-3.32,1.81-4.3.23-.76-1.25-.51-3.21.06-4.63.2-.48,2.8-.26,5.49-.43"/><path id="Fill-526" d="M534.76,407.19c2.33.37,4,.13,5,.92a2.75,2.75,0,0,1-.2,4.46c-1.08.72-3.11.91-4,.19-.74-.59-.45-2.9-.74-5.57"/><path id="Fill-528" d="M514.28,53.55c-.11.82.15,2.37-.54,3.14a3.16,3.16,0,0,1-4.9,0,3.86,3.86,0,0,1-.14-3.82c1.39-1.82,3.27-1,5.58.73"/><path id="Fill-530" d="M433.37,203.59c1.33.3,3,.2,3.91,1a2.7,2.7,0,0,1,0,4.4c-1.09.72-3.55.92-4.22.19-.85-.92-.49-3-.66-4.65l1-.92"/><path id="Fill-532" d="M661.22,561.39c2.23.15,3.86-.22,4.9.44,1.56,1,1.4,2.78.09,4.19s-3,2.06-4.27.51c-.74-.93-.44-2.78-.72-5.14"/><path id="Fill-534" d="M459.13,459c1.21.18,2.72-.1,3.56.64a3,3,0,0,1-.07,4.57c-1,.79-3.09,1.13-4,.45-1.83-1.37-.64-3.24.51-5.66"/><path id="Fill-536" d="M668.31,739.69c0,1.8.34,2.95-.06,3.67-.78,1.39-4.73,1.58-5.52.21-.49-.85-.32-3.17,0-3.26a28.19,28.19,0,0,1,5.58-.62"/><path id="Fill-538" d="M566,133.72c-2.61-.44-4.88-.27-5.54-1.09a3.79,3.79,0,0,1,.3-4,3.26,3.26,0,0,1,4.87.44c.69.92.26,2.5.37,4.68"/><path id="Fill-540" d="M737.1,259.28c.3-1.21.24-3.08,1-3.48a4.71,4.71,0,0,1,4,.09,2,2,0,0,1,0,3.55c-1.12.69-2.74.54-4.13.78l-.84-.94"/><path id="Fill-542" d="M610.64,616.81c.31-2.65.05-4.55.84-5.67.44-.61,2.95-.39,3.94.31a2.84,2.84,0,0,1,.1,4.62c-.86.73-2.53.44-4.88.74"/><path id="Fill-544" d="M489,407.19c-.23,2.59.08,4.42-.68,5.56-.43.63-3,.62-4,0a2.75,2.75,0,0,1-.34-4.5c.9-.76,2.61-.59,5-1"/><path id="Fill-546" d="M762.39,257.18c1.93-2.14,4.56-2.34,5.63-.68a3.88,3.88,0,0,1,0,3.36c-1.19,1.85-4.33,2.1-5.24.49-.56-1-.34-2.47-.41-3.17"/><path id="Fill-548" d="M533.55,387c.31-1.2.26-3,1-3.44a4.59,4.59,0,0,1,4-.06,2.21,2.21,0,0,1-.2,3.8c-1.07.63-2.66.42-4,.58-.27-.29-.53-.59-.81-.88"/><path id="Fill-550" d="M642,261.42c-2.49-.29-4.24-.22-5.75-.87-.37-.16-.4-3,.16-4.08.86-1.6,3.93-1.34,4.88.32.52.9.39,2.31.71,4.63"/><path id="Fill-552" d="M514.54,565c-1.31-.14-2.89.14-3.87-.5a2.25,2.25,0,0,1-.22-3.84,4.69,4.69,0,0,1,4-.06c1.35.74,1.36,2.37.08,4.4"/><path id="Fill-554" d="M609.43,205.06c2.41-1.66,4.35-2.07,5.66-.39a3.75,3.75,0,0,1-.26,3.64,3.16,3.16,0,0,1-4.88.28c-.74-.84-.41-2.58-.52-3.53"/><path id="Fill-556" d="M615.45,133.72c-2.65-.4-4.86-.19-5.54-1s-.58-3,.16-4a2.84,2.84,0,0,1,4.46,0c.78,1,.55,2.62.92,4.92"/><path id="Fill-558" d="M560.05,107.61c.16-1.39-.15-3.08.59-4.11,1-1.44,2.91-1.45,4.34-.14s1.53,3,0,4.06c-1,.71-2.62.69-4,1l-.94-.81"/><path id="Fill-560" d="M513.76,591.51c-.81-.19-2.25-.07-2.94-.77-1.36-1.37-2.07-3.52-.31-4.89.84-.65,3-.37,4,.37,1.77,1.34.8,3.13-.78,5.29"/><path id="Fill-562" d="M483,51.86c2.29.09,4-.34,5,.31,1.66,1.14,1.13,2.89-.19,4.23s-3.06,2.17-4.34.53c-.75-1-.3-2.78-.45-5.07"/><path id="Fill-564" d="M487.79,560.19c-.16,2.15-.25,3.48-.36,4.82-1.51-.11-3.36.23-4.48-.43a2.19,2.19,0,0,1-.07-3.86c.94-.63,2.64-.34,4.91-.53"/><path id="Fill-566" d="M585.34,715c2.07-1.91,3.56-2.5,5.06-.95a2.66,2.66,0,0,1,.06,4,3,3,0,0,1-4.65-.08c-.65-.75-.38-2.35-.47-3"/><path id="Fill-568" d="M457.68,432.49c2.33.33,3.85.15,4.85.76,1.58,1,1.56,3.95-.1,4.8-1.13.58-3.63.65-4.08,0-.78-1.13-.45-3-.67-5.56"/><path id="Fill-570" d="M737.1,361.26c.14-1-.13-2.68.54-3.45a3.11,3.11,0,0,1,5,0,3.91,3.91,0,0,1,.15,3.64c-1.39,1.83-3.3,1.23-5.64-.22"/><path id="Fill-572" d="M514.28,261.42c-2.59-.49-4.45-.41-5.7-1.26-.54-.38-.38-3.11.37-3.88,1.47-1.51,3.55-.95,4.77.65.6.78.32,2.23.56,4.49"/><path id="Fill-574" d="M408.82,331.29c.69.13,2.11-.05,2.93.66,1.44,1.21,2,3.41.42,4.74a4,4,0,0,1-4.05.14c-1.75-1.22-1.1-3.18.7-5.54"/><path id="Fill-576" d="M431.18,309.75c.36-1.31.35-3,1.16-3.86,1.34-1.47,3.56-1.53,4.55.22a4.42,4.42,0,0,1-.57,4.23c-.79.78-2.82.33-4.3.43-.29-.34-.56-.68-.84-1"/><path id="Fill-578" d="M686.51,234c.37-1.39.31-3.09,1.2-4.09a2.79,2.79,0,0,1,4.43.22,3.76,3.76,0,0,1-.28,3.84c-.87.83-2.87.69-4.38,1l-1-.95"/><path id="Fill-580" d="M616.66,534.89c-.39,2.1-.14,4-1,4.42-1.17.66-3.14.29-4.76.35-.05-1.46-.69-3.21,0-4.27.47-.68,3-.32,5.68-.5"/><path id="Fill-582" d="M260.15,153c-.4,2.17-.15,4-1,4.45-1.16.63-3.11.25-4.73.3-.06-1.36-.73-3.12,0-4s2.93-.46,5.66-.77"/><path id="Fill-584" d="M560.05,540c.17-1.53-.17-3.57.65-4.44s3.06-.85,4.11-.21a2.7,2.7,0,0,1,.18,4.45c-1,.83-2.59.79-3.92,1.14l-1-.94"/><path id="Fill-586" d="M259,127.7c-.23,2.59.1,4.61-.62,5.47s-3.09.73-3.57,0a5.59,5.59,0,0,1-.3-4.47c.34-.77,2.31-.59,4.49-1"/><path id="Fill-588" d="M763.69,360.66c0-.66-.34-2.1.2-3,.87-1.5,4.09-1.34,5.22.36a3.86,3.86,0,0,1,.13,3.55c-1.49,1.9-3.32,1.12-5.55-.87"/><path id="Fill-590" d="M438.39,285.23c-2.22,2.08-3.73,1.76-5.1.39a2.42,2.42,0,0,1,.08-3.84c1.54-1.42,3.38-1.53,4.63.19.62.87.32,2.51.39,3.26"/><path id="Fill-592" d="M558.85,592.71c.4-2.59.17-4.58,1-5.52.64-.71,3-.64,4,.06a2.73,2.73,0,0,1-.18,4.43c-.94.72-2.49.59-4.79,1"/><path id="Fill-594" d="M407.09,102.4c2.39.34,4,.09,4.89.8a2.89,2.89,0,0,1-.08,4.65c-.93.7-3.53.77-4,.14-.8-1.12-.53-3-.82-5.59"/><path id="Fill-596" d="M461.87,362.62c-.68-.12-2.82-.14-2.88-.56a12.78,12.78,0,0,1,.43-5.25c.09-.31,2.63-.36,3.38.34,1.5,1.42,1.07,3.28-.93,5.47"/><path id="Fill-598" d="M228.84,178.53c2.33-.05,3.93-.5,5.11,0,1.47.61,1.11,4.11-.7,5.28-.94.61-3.56.62-3.67.31-.54-1.5-.5-3.2-.74-5.59"/><path id="Fill-600" d="M381.8,312c.33-2.4.07-4.11.78-4.94,1.49-1.76,3.58-1.21,4.81.42.6.79.53,3.3,0,3.56-1.33.69-3.05.6-5.63,1"/><path id="Fill-602" d="M356.84,432.49c.78.15,2.69.1,2.86.65a21.71,21.71,0,0,1,.42,5.27c-1.28-.05-2.94.4-3.75-.27-1.62-1.37-1.35-3.34.47-5.65"/><path id="Fill-604" d="M406.92,255.4c1.55.24,3.64,0,4.49.88s.61,3-.1,4a2.83,2.83,0,0,1-4.57,0c-.78-1-.6-2.61-.85-3.94l1-.94"/><path id="Fill-606" d="M463.7,83.12c-2.23-.23-4.26,0-4.47-.56-.54-1.56-.28-3.5-.34-5.28,1.3,0,3.08-.54,3.78.23s.61,3,1,5.61"/><path id="Fill-608" d="M610.64,693.05c.21-1.29,0-3.39.74-3.67a6.55,6.55,0,0,1,4.72.35c.66.34.77,2.93.11,3.38-1.08.75-3,.58-4.58.8Z"/><path id="Fill-610" d="M387.82,282.17c-.16.89,0,2.38-.68,3.29a2.66,2.66,0,0,1-4.21.42,2.72,2.72,0,0,1-.34-4.13c1.38-1.64,3-1.26,5.23.42"/><path id="Fill-612" d="M438.4,260.22c-2.27-.22-3.93.14-4.95-.59-1.48-1.05-1.34-3.05-.08-4.4a2.56,2.56,0,0,1,4.28.24c.63.91.44,2.5.75,4.75"/><path id="Fill-614" d="M641.22,387.91c-1.65-.16-3.47.06-4.88-.66-.58-.3-.3-2.61-.41-4,1.7,0,3.48-.38,5.06.08.57.16.66,2.27,1,3.49-.24.37-.49.73-.73,1.09"/><path id="Fill-616" d="M565,234.92c-1.55-.25-3.68,0-4.49-.87s-.58-3,.14-4a2.81,2.81,0,0,1,4.57,0c.78,1,.59,2.58.83,3.9l-1.05.95"/><path id="Fill-618" d="M560.2,356.59c2.39.69,4.06.72,5,1.55a2.42,2.42,0,0,1-.65,4.14c-1.11.54-3.48.43-4.08-.33s-.2-2.79-.24-5.36"/><path id="Fill-620" d="M661.25,714.85c2.43-2.2,4.29-2.08,5.55-.47a3.61,3.61,0,0,1,0,3.53c-1.4,1.52-3.61,1.86-5.1.18-.7-.8-.35-2.53-.42-3.24"/><path id="Fill-622" d="M610.39,381.89c1.54.35,3.49.29,4.49,1.16.73.63.76,2.84.12,3.74a2.86,2.86,0,0,1-4.55,0c-.83-1-.72-2.65-1-4Z"/><path id="Fill-624" d="M609.43,489.11c.23-2.24-.09-3.84.6-4.76a3,3,0,0,1,4.79-.08c.74.94.87,3.42.17,4-1,.82-3,.52-5.56.82"/><path id="Fill-626" d="M558.85,484.29c2.66.48,4.75.27,5.44,1.13s.78,3.6.05,4.14c-1.1.81-3.62,1-4.63.33s-.53-2.9-.86-5.6"/><path id="Fill-628" d="M486.88,260.22c-1.22-.29-3.07-.2-3.48-.94a4.92,4.92,0,0,1,0-4.11,2.06,2.06,0,0,1,3.59.15c.66,1.08.53,2.66.76,4l-.91.88"/><path id="Fill-630" d="M534.52,485.5c1.39.21,3.35,0,4,.75.88,1,.74,2.68,1,4.06-1.81-.12-3.76.07-5.35-.53-.64-.23-.48-2.19-.68-3.37l1-.91"/><path id="Fill-632" d="M279.42,132.82c.27-1.37.2-3,.89-4.07a2,2,0,0,1,3.54.06,4.48,4.48,0,0,1-.1,3.87c-.56.81-2.26.73-3.47,1l-.86-.9"/><path id="Fill-634" d="M610.64,51.8c2.31.42,4,.23,4.94,1a2.77,2.77,0,0,1-.39,4.63c-1.14.7-3,.22-4.51.28,0-1.63,0-3.25,0-5.92"/><path id="Fill-636" d="M304.72,132.92c.18-1.23-.06-3.1.66-3.54a5.21,5.21,0,0,1,4.17-.08,1.93,1.93,0,0,1,.15,3.49c-1.08.7-2.71.65-4.08.93-.31-.26-.61-.53-.9-.8"/><path id="Fill-638" d="M432.38,107.47c.24-1.56,0-3.62.84-4.54.68-.74,2.95-.68,4,0a2.73,2.73,0,0,1,.08,4.49c-1,.82-2.61.7-3.95,1l-.94-1"/><path id="Fill-640" d="M561,560.19c1.21.35,3.08.34,3.49,1.17a6.08,6.08,0,0,1-.16,4.43c-.22.52-2.92.61-3.34,0-.77-1.16-.69-3-1-4.56l1-1"/><path id="Fill-642" d="M642,484.29c-.41,2.39-.23,4-.93,4.9-1.3,1.69-3.29,1.36-4.41-.22-.71-1-.49-2.68-.68-4.05l6-.63"/><path id="Fill-644" d="M661.28,662.59c2.58.37,4.55.16,5.55,1,.67.55.48,2.9-.26,3.81a3.12,3.12,0,0,1-5,0c-.69-.85-.23-2.5-.33-4.8"/><path id="Fill-646" d="M584.14,692.86c.27-1.26.16-2.83.89-3.7,1.38-1.66,3.45-1.76,4.72.08.59.87.52,3.3-.06,3.65-1.31.79-3.12.73-4.73,1l-.82-1"/><path id="Fill-648" d="M585.36,612c2.1.34,4,.21,4.35.81.57,1,.64,3.1,0,3.57-1,.69-2.84.34-4.33.43,0-1.32,0-2.63,0-4.81"/><path id="Fill-650" d="M610.64,515.61c.17-2.29-.14-4,.48-4.95a2.17,2.17,0,0,1,3.82.14,4.59,4.59,0,0,1,.12,3.94c-.6.8-2.35.54-4.42.87"/><path id="Fill-652" d="M585.41,108.42c.1-2.34-.38-4.07.33-5,1.18-1.55,3.15-1.13,4.57.11s1.38,2.93-.14,4c-1,.65-2.53.54-4.76.94"/><path id="Fill-654" d="M661.41,687.89c2.27.42,3.94.27,5,1,1.44,1.05.88,2.64-.35,3.8-1.49,1.4-3.3,1.72-4.52,0-.6-.84-.11-2.53-.11-4.86"/><path id="Fill-656" d="M509.46,462.68c.1-1.23.19-2.46.28-3.69,1.42.2,3,.14,4.2.73.42.2.5,2.35,0,3.08-1,1.46-2.53,1.27-4.47-.12"/><path id="Fill-658" d="M590.16,83.12c-2.25-.38-4.28-.23-4.51-.88-.54-1.51-.2-3.4-.22-5.14,1.36.2,3.09-.09,3.94.76s.48,2.74.79,5.26"/><path id="Fill-660" d="M433.38,230.1c1.33.24,2.92.16,3.93.81a2,2,0,0,1-.05,3.57,4.91,4.91,0,0,1-4,0c-.79-.53-.6-2.28-.84-3.49l1-.89"/><path id="Fill-662" d="M304.72,157.72c.15-.93,0-2.47.64-3.22,1.37-1.63,3.4-2.2,4.94-.34a3.86,3.86,0,0,1,0,3.49c-1.32,1.92-3.23,1.71-5.62.07"/><path id="Fill-664" d="M336,83.12c-2.35-.11-3.84.23-4.88-.32-1.48-.78-1.55-4.52,0-5.32,1-.54,3.23-.51,3.73.17.84,1.14.73,3,1.19,5.47"/><path id="Fill-666" d="M864.77,360.86c.14-.82,0-2.33.6-3.05a3,3,0,0,1,4.94.09,4,4,0,0,1,0,3.69c-1.5,1.76-3.4,1.08-5.58-.73"/><path id="Fill-668" d="M227.63,312c.42-2.41.33-4.2,1.12-5.48.4-.65,2.42-.39,3.7-.55a23.77,23.77,0,0,1-.48,5.3c-.13.46-2.16.39-4.34.73"/><path id="Fill-670" d="M585.34,509.59c2.37.43,3.85.3,4.72,1,1.63,1.21,1.78,3.2.17,4.41-.94.7-3.65.87-3.92.39-.74-1.31-.61-3.09-1-5.75"/><path id="Fill-672" d="M635.93,362.62c.24-2.34.2-4.57.53-4.63a10,10,0,0,1,5,.26c.5.18.64,3.37.28,3.52-1.47.6-3.19.54-5.82.85"/><path id="Fill-674" d="M585.34,534.89c2.35.45,3.87.33,4.82,1a2.58,2.58,0,0,1,.17,4.24c-1.07.75-3.48,1.06-4.17.37-.84-.85-.51-2.94-.82-5.64"/><path id="Fill-676" d="M483,591.51c.3-2.13.07-4,.75-4.47a3.53,3.53,0,0,1,3.55.28,4,4,0,0,1,.1,3.72c-.45.66-2.29.31-4.4.47"/><path id="Fill-678" d="M457.68,108.42c.19-2.77.3-4.4.42-6,1.5.18,3.29-.12,4.43.65a2.63,2.63,0,0,1,0,4.38c-.95.74-2.53.57-4.83,1"/><path id="Fill-680" d="M203.93,133.72c-.09-2.23-.77-4-.07-5.06,1.06-1.58,3-1,4.39.19s1.91,3,.26,4.26c-.81.62-2.45.37-4.58.61"/><path id="Fill-682" d="M591.36,57.83c-2.53-.32-4.35-.06-5.28-.83-.75-.63-1-2.7-.5-3.78.62-1.47,4.47-1.92,5-.75s.46,2.81.78,5.36"/><path id="Fill-684" d="M513.36,413.21c-1.41-.28-3.1-.14-4.18-.95-1.31-1-1.2-2.78.18-4s3.17-1.6,4.32.08c.65,1,.43,2.6.6,3.94l-.92.93"/><path id="Fill-686" d="M361.32,336.11c-2.05-.21-3.92.11-4.44-.59a3.73,3.73,0,0,1,.25-3.7c.71-.69,2.75-.68,3.7-.11.61.36.31,2.3.49,4.4"/><path id="Fill-688" d="M560.05,514.78c.23-1.24.06-3,.82-3.58s2.5-.3,3.81-.38c0,1.27.5,2.9-.13,3.73s-2.34.74-3.58,1.06l-.92-.83"/><path id="Fill-690" d="M355.3,204.8c2.31.22,4-.06,5,.59a2.07,2.07,0,0,1-.25,3.7c-1.13.63-2.8.39-4.21.53-.15-1.31-.29-2.62-.53-4.82"/><path id="Fill-692" d="M585.64,738.48c1.86.3,3.48,0,4.13.84s.49,3.07-.09,4c-1.13,1.76-3,1.48-4.11-.1-.51-.74,0-2.48.07-4.72"/><path id="Fill-694" d="M356.51,51.8c2.36.19,4.23-.16,5.13.5,1.7,1.26.69,3-.78,3.84-1,.59-2.66.35-4,.48-.1-1.34-.2-2.67-.34-4.82"/><path id="Fill-696" d="M304.72,178.3c2.55.29,4.42,0,5.54.82.66.46.63,3-.05,3.92a2.93,2.93,0,0,1-4.86,0c-.66-.82-.37-2.41-.63-4.71"/><path id="Fill-698" d="M514.28,719.21c-1.83-.21-3,0-3.71-.49-1.42-1-1.51-4.16-.05-5.13.87-.58,3.23-.47,3.33-.11.46,1.52.32,3.26.43,5.73"/><path id="Fill-700" d="M331.21,284.56c.34-1.21.31-2.75,1.16-3.51.6-.54,2.78-.44,3.61.13,1.54,1,1.76,2.88.11,4-.9.59-2.6.25-3.93.33l-1-.93"/><path id="Fill-702" d="M334.18,210.71c-.7,0-2.44.41-3.14-.26-1.71-1.63-1.12-3.79.49-5.16a3.48,3.48,0,0,1,3.38-.1c1.78,1.42,1.37,3.26-.73,5.52"/><path id="Fill-704" d="M279.42,203.59c2.29.29,3.86,0,4.73.7a2.86,2.86,0,0,1,.16,4.67c-1,.73-3.51.9-4,.26-.83-1.11-.58-3.06-.91-5.63"/><path id="Fill-706" d="M331.21,107.22c.1-2.12.15-3.47.21-4.82,1.26.17,2.76,0,3.71.61a2.19,2.19,0,0,1-.13,3.62c-.72.56-2,.35-3.79.59"/><path id="Fill-708" d="M508.26,335.33c.1-.82-.16-2.44.48-3.08,1.71-1.71,3.72-.91,5,.71.6.73.72,2.87.18,3.45-1.69,1.77-3.5.7-5.68-1.08"/><path id="Fill-710" d="M330,311.19c.41-1.54.49-3.32,1.37-4.55.45-.65,2.71-.88,3.41-.35,1.78,1.37,1.52,3.49,0,4.85-.87.75-2.52.62-3.82.88l-.94-.83"/><path id="Fill-712" d="M540.78,592.71c-2.28-.26-3.86,0-4.95-.68-1.47-.94-1.33-2.79-.17-4.16s2.83-1.68,4-.06c.67,1,.65,2.54,1.17,4.9"/><path id="Fill-714" d="M457.68,407.19c2.34.37,3.83.15,4.7.83a2.93,2.93,0,0,1,.25,4.7c-.84.69-3.18.65-3.86-.09-.84-.88-.65-2.84-1.09-5.44"/><path id="Fill-716" d="M508.26,209.62c.16-2.3.25-3.56.33-4.82,1.79.14,3.66,0,5.29.58.49.18.29,2.41.4,3.71l-6,.53"/><path id="Fill-718" d="M560.05,718.47c.2-1.25-.06-2.84.72-3.65.61-.64,2.49-.32,3.8-.43.06,1.27.62,2.78,0,3.75-.44.72-2.34.74-3.59,1.07l-1-.74"/><path id="Fill-720" d="M279.42,102.4c2.24.19,3.84-.07,4.76.49,1.78,1.07,1.59,2.88,0,3.86-.93.59-3.39.64-4,.06-.81-.78-.5-2.4-.78-4.41"/><path id="Fill-722" d="M203.55,159c.4-2.14.26-3.86,1-4.38s3.08-.57,3.4,0a4.56,4.56,0,0,1,0,3.87c-.35.62-2.24.32-4.4.52"/><path id="Fill-724" d="M432.38,336.47c.31-1.27.23-3,1.05-3.67s2.42-.1,3.69-.08c-.05,1.32.36,2.95-.29,3.86-.51.71-2.33.52-3.56.74l-.89-.85"/><path id="Fill-726" d="M635.93,208.32c.24-1.83,0-3.35.61-3.88a3.5,3.5,0,0,1,5,.47c.65.82.27,2.31.35,3.5l-6-.09"/><path id="Fill-728" d="M309.86,108.42c-1.22-.32-3-.24-3.51-1.07a4.69,4.69,0,0,1,.07-4.07c1.34-1.93,2.79-.26,3.66.9.58.77.46,2.16.66,3.28l-.88,1"/><path id="Fill-730" d="M459.71,381.89c1,.25,2.16.16,2.85.82a3.32,3.32,0,0,1,.29,4.71c-.62.66-2.71.64-3,0-.69-1.24-.66-3.09-.93-4.68.28-.3.55-.6.83-.89"/><path id="Fill-732" d="M331.21,261.42c.11-2.59.18-4.29.25-6,1.13.08,2.55-.31,3.33.35a3.2,3.2,0,0,1,.22,4.87c-.63.65-1.92.43-3.8.76"/><path id="Fill-734" d="M432.38,438.51c.31-2,0-3.71.82-4.38a4.83,4.83,0,0,1,4,0c1.68,1,1.47,2.81-.16,3.84-.88.56-2.43.32-4.7.53"/><path id="Fill-736" d="M635.93,667.41c.49-2.1.36-3.75,1.18-4.36a4.44,4.44,0,0,1,3.88,0c1.57,1.09,1.07,2.85-.44,3.81-.85.54-2.3.33-4.62.58"/><path id="Fill-738" d="M355.3,260.22c.25-2.23,0-3.87.67-5a2.09,2.09,0,0,1,3.68,0,5.41,5.41,0,0,1,.09,4.2c-.24.55-2.28.4-4.44.7"/><path id="Fill-740" d="M458.88,484.29c1.87.17,3.23-.09,3.86.44,1.59,1.32,1,3-.4,4-.67.49-2.84.39-3,.07-.45-1.18-.34-2.56-.5-4.55"/><path id="Fill-742" d="M636.8,509.59a21.26,21.26,0,0,1,4.86,1c.44.2.4,2.33-.25,2.93a3.2,3.2,0,0,1-4.62-.2c-.66-.69-.6-1.9-.86-2.87l.87-.86"/><path id="Fill-744" d="M356.55,77.1c2,.37,3.53.22,4.48,1,.48.38.35,2.81-.23,3.66-1,1.54-2.82,2-4,.22-.56-.88-.19-2.54-.27-4.86"/><path id="Fill-746" d="M336,337.32c-2.43-.22-4.31.13-5.17-.57-1.65-1.36-.61-3,.7-4.27,1.13-1.09,2.7-1.86,3.69-.31.73,1.15.49,2.83.78,5.15"/><path id="Fill-748" d="M609.43,356.59c2.62.38,4.42.21,5.66,1,.63.39.23,2.46.3,3.77-1.62,0-3.36.29-4.8-.24-.61-.22-.61-2.19-1.16-4.51"/><path id="Fill-750" d="M153,153c2.21.5,3.91.41,4.49,1.16s.16,2.35.18,3.58c-1.37,0-3,.34-4-.29-.68-.43-.4-2.26-.67-4.45"/><path id="Fill-752" d="M385.8,107.22a19.75,19.75,0,0,1-4.75-1.1c-.52-.26-.65-2.29-.1-2.82a3.44,3.44,0,0,1,4.83.21c.68.64.58,1.9.84,2.88l-.82.83"/><path id="Fill-754" d="M332.22,230.1c1.29.26,2.86.23,3.82.83,1.57,1,1.61,2.62,0,3.57-.88.51-3.34.56-3.7.11-.82-1-.8-2.52-1.13-3.82l1-.69"/><path id="Fill-756" d="M305.92,203.59c2.14.4,3.87.21,4.35.95a4.55,4.55,0,0,1,.06,3.9,2.13,2.13,0,0,1-3.77.08c-.63-.91-.38-2.54-.64-4.93"/><path id="Fill-758" d="M483,77.1c2,.18,3.47-.12,4.42.57.52.38.49,3.41.11,3.6-1.23.62-2.74.49-4.14.65-.11-1.28-.21-2.56-.39-4.82"/><path id="Fill-760" d="M228.84,132.52c.39-2.1.21-3.78,1-4.52.59-.55,3.25-.28,3.5.27a5,5,0,0,1-.2,3.94c-.24.48-2.19.19-4.3.31"/><path id="Fill-762" d="M560.05,738.48c2.17.19,4-.13,4.34.49a4.15,4.15,0,0,1,.08,3.7c-.39.64-2.64.87-3.28.33s-.66-2.33-1.14-4.52"/><path id="Fill-764" d="M508.26,234.92c.28-2.36.42-3.59.57-4.82a23.59,23.59,0,0,1,5.14.84c.39.13.4,3.11.13,3.19a33.82,33.82,0,0,1-5.84.79"/><path id="Fill-766" d="M534.76,565.38c.32-1.25.28-3,1.08-3.62s2.46-.24,3.74-.28c-.12,1.28.21,3-.46,3.74s-2.35.7-3.59,1l-.77-.83"/><path id="Fill-768" d="M407.09,433.69c2.06.28,3.77,0,4.34.72s.65,3,.06,3.49a4.19,4.19,0,0,1-3.79.29c-.61-.31-.37-2.32-.61-4.5"/><path id="Fill-770" d="M281.6,306c1.17.34,2.76.3,3.4,1.12a4,4,0,0,1,0,3.62c-.95,1.34-2.8,2-3.91.22-.63-1-.36-2.64-.49-4l1-1"/><path id="Fill-772" d="M381.8,438.51c.21-2.24,0-4.19.49-4.42a5,5,0,0,1,3.85,0c.47.22.7,2.81.18,3.31-.83.77-2.39.67-4.52,1.14"/><path id="Fill-774" d="M610.64,77.1c2,.23,3.37.14,4.48.67.39.18.49,2.27,0,2.9A2.55,2.55,0,0,1,611,81c-.53-.58-.23-2-.37-3.93"/><path id="Fill-776" d="M508.26,107.22c.15-1.88-.21-3.16.38-3.72a3.57,3.57,0,0,1,5-.11c.67.65.73,2.83.44,2.93a35.25,35.25,0,0,1-5.86.9"/><path id="Fill-778" d="M203.55,208.84c.4-1.27.5-2.73,1.34-3.74.42-.51,2.2-.2,3.36-.27,0,1.26.38,2.7-.22,3.71-.39.67-2.2.75-3.38,1.08l-1.1-.78"/><path id="Fill-780" d="M457.68,586.69c2,.16,3.84-.23,4.32.48.64.94.62,3.74.15,4-1.28.6-2.94.3-4.46.35,0-1.28,0-2.56,0-4.79"/><path id="Fill-782" d="M153,178.3c1.92.6,3.17.58,3.9,1.32a2.81,2.81,0,0,1-.15,4.29c-.83.6-2.8.54-3.26-.18-.64-1-.33-2.85-.49-5.43"/><path id="Fill-784" d="M635.93,234.92c.2-1.78.25-3.57.43-3.58a11.71,11.71,0,0,1,4.21.41c.24.07.26,2.51-.11,2.65-1.16.46-2.54.35-4.53.52"/><path id="Fill-786" d="M737.1,230.1c2,.15,3.49,0,4.63.5.4.18,0,2,0,3.1a17.67,17.67,0,0,1-4.07-.21c-.37-.1-.32-1.69-.58-3.39"/><path id="Fill-788" d="M508.26,387.91c.42-2.33.42-4.5.9-4.62a10,10,0,0,1,4.89.27c.29.09.38,3.18-.12,3.43-1.39.68-3.14.58-5.67.92"/><path id="Fill-790" d="M509.46,744.51c.17-2.64.05-4.35.51-5.81.13-.42,2-.1,3-.12a23.73,23.73,0,0,1-.06,4.85c-.1.48-1.67.56-3.46,1.08"/><path id="Fill-792" d="M432.38,413.21c.28-2.22.1-4.23.65-4.5,1.15-.56,2.69-.2,4.07-.22,0,1.37.39,3.17-.26,4s-2.35.47-4.46.76"/><path id="Fill-794" d="M635.93,642.11c.23-2.24,0-4.34.55-4.56,1.2-.52,2.75-.12,4.16-.09,0,1.36.39,3.14-.26,3.95s-2.35.44-4.45.7"/><path id="Fill-796" d="M610.64,230.1c2.11.49,3.54.5,4.62,1.24.39.27.11,3.27-.17,3.35a6.94,6.94,0,0,1-4-.14c-.36-.14-.24-2.16-.44-4.45"/><path id="Fill-798" d="M252.93,184.32c.62-2.33.65-4.31,1.34-4.56a6.25,6.25,0,0,1,4.39.34c.44.21.39,3.09-.27,3.51-1.09.72-2.86.45-5.46.71"/><path id="Fill-800" d="M457.68,561.39c2.24.26,4.19.05,4.47.61.57,1.14.25,2.7.29,4.09-1.37,0-3.08.41-4-.23-.72-.48-.46-2.3-.76-4.47"/><path id="Fill-802" d="M560.05,612c2.26.34,4.34.24,4.58.78.51,1.16,0,2.65,0,4-1.41-.09-3.25.29-4.11-.38s-.3-2.32-.45-4.41"/><path id="Fill-804" d="M228.84,285.51c.39-2.07.38-3.49,1-4.65.18-.32,3.32-.12,3.44.22a7.17,7.17,0,0,1,.06,4.08c-.08.29-2.26.2-4.55.35"/><path id="Fill-806" d="M280.63,280.7c2.11.51,3.62.43,4.48,1.26.52.49.4,2.74-.13,3.62-1,1.58-2.67,1.46-3.66,0-.58-.89-.39-2.46-.69-4.85"/><path id="Fill-808" d="M279.42,230.1c2.35.2,3.92-.08,4.82.5a2.18,2.18,0,0,1,.06,3.87,4.31,4.31,0,0,1-3.79,0c-.81-.64-.64-2.3-1.09-4.39"/><path id="Fill-810" d="M563.83,667.41c-1.21-.33-3-.34-3.49-1-.59-.94-.1-2.42-.09-3.66,1.33,0,3.3-.4,3.83.19.8.88.57,2.48.79,3.78l-1,.73"/><path id="Fill-812" d="M487.79,381.89c-.43,2.21-.29,3.94-1,4.47a3.32,3.32,0,0,1-3.37-.23,3.77,3.77,0,0,1,0-3.56c.5-.68,2.22-.41,4.39-.68"/><path id="Fill-814" d="M407.09,361.79c.25-1.2.13-2.77.88-3.48s3-.68,3.3-.19a4,4,0,0,1,.33,3.64c-.52.74-2.36.61-3.61.86l-.9-.83"/><path id="Fill-816" d="M534.76,536.09c2.06.28,3.69,0,4.42.76s.49,3.21,0,3.53a5,5,0,0,1-3.93.25c-.43-.16-.26-2.32-.44-4.54"/><path id="Fill-818" d="M513.32,83.12a20.12,20.12,0,0,1-4.83-1.58c-.48-.29-.06-2.11-.05-3.23,1.62.11,3.37-.11,4.79.5.68.29.72,2.12,1,3.25l-1,1.06"/><path id="Fill-820" d="M610.64,642.11c.29-2.2,0-4,.71-4.47a3.74,3.74,0,0,1,3.6.24c.64.61.67,2.7.09,3.5s-2.25.44-4.4.73"/><path id="Fill-822" d="M356.51,413.21c.18-2,.09-3.44.57-4.62.14-.35,2.54-.21,2.7.25a16,16,0,0,1,.34,4.31l-3.61.06"/><path id="Fill-824" d="M204.55,178.3c1.23.16,3.33,0,3.53.54a5.33,5.33,0,0,1-.2,3.92c-.17.39-2.94.54-3.36,0-.78-.93-.7-2.42-1-3.68l1-.81"/><path id="Fill-826" d="M560.05,692.7c.4-2.05.41-3.48,1-4.57.22-.38,2.25-.32,2.86.21a2.36,2.36,0,0,1-.11,3.83c-.68.53-1.93.31-3.78.53"/><path id="Fill-828" d="M153,209.62c.64-2.18.67-3.8,1.46-4.54.63-.58,2.21-.09,3.36-.07-.1,1.3.22,2.94-.42,3.81-.53.71-2.21.46-4.4.8"/><path id="Fill-830" d="M509.46,361.41c.16-1.73.11-3.42.34-3.46a8.72,8.72,0,0,1,4,.17c.42.14.55,2.53.35,2.59a27.17,27.17,0,0,1-4.73.7"/><path id="Fill-832" d="M538.85,515.61c-1.29-.3-2.78-.29-3.78-1.05-.48-.38-.37-3,.08-3.23a4,4,0,0,1,3.59-.19c.67.42.59,2.31.84,3.54l-.73.93"/><path id="Fill-834" d="M561,637.29c1.24.25,3,.14,3.55.87a3.65,3.65,0,0,1-.26,3.54c-.43.56-2.74.54-3.37-.05s-.6-2.29-.84-3.49l.92-.87"/><path id="Fill-836" d="M585.34,637.29c2.26.4,4.11.28,4.45.89a3.66,3.66,0,0,1-.17,3.52c-.46.56-2.83.54-3.51-.05s-.46-2.23-.77-4.36"/><path id="Fill-838" d="M380.59,81.92c.44-1.84.33-3.18,1-3.85a3,3,0,0,1,4.71.35c.61.75.15,2.25.17,3.42l-5.88.08"/><path id="Fill-840" d="M203.55,107.22c.13-2.14.21-3.48.3-4.81,1.41.1,3.38-.27,4.09.43s.45,2.68-.12,3.75c-.29.56-2.2.37-4.27.63"/><path id="Fill-842" d="M361.32,463.81c-2.18-.35-3.8-.13-4.34-.82a3.52,3.52,0,0,1-.07-3.4,3.18,3.18,0,0,1,3.24-.27c.75.66.67,2.31,1.17,4.49"/><path id="Fill-844" d="M310.7,310.81c-2.13-.61-3.71-.66-4.51-1.44-.52-.5-.21-2.8.31-3a5,5,0,0,1,3.89.06c.61.38.21,2.23.31,4.39"/><path id="Fill-846" d="M385.85,260.22c-1.28-.32-2.8-.25-3.76-1.08-.54-.46-.16-2.39-.19-3.65,1.35,0,2.83-.33,4,.22.54.26.5,2.25.72,3.45l-.77,1.06"/><path id="Fill-848" d="M539.85,616.81a20.59,20.59,0,0,1-4.72-1c-.48-.23-.52-2.16,0-2.78a2.86,2.86,0,0,1,4.38.06c.72.72.84,1.87,1.23,2.83l-.93.94"/><path id="Fill-850" d="M361.32,103.36c-.13,1.23,0,3.33-.45,3.53a6.52,6.52,0,0,1-4,0c-.27-.06-.54-2.83-.1-3.18,1-.82,2.5-.94,3.78-1.33l.8,1"/><path id="Fill-852" d="M411.08,387.91c-1.25-.3-2.91-.23-3.64-1a3.44,3.44,0,0,1,.22-3.4,3.56,3.56,0,0,1,3.47.17c.7.58.55,2.25.78,3.44Z"/><path id="Fill-854" d="M407.09,412.26c.29-1.24.24-3.13.94-3.56,1-.6,2.54-.13,3.86-.12-.09,1.3.27,3.12-.37,3.76-.79.8-2.4.63-3.66.87l-.77-.95"/><path id="Fill-856" d="M209.57,81.92c-2.23-.22-4.35-.06-4.52-.51-.5-1.27-.22-2.79-.24-4.22,1.37,0,3.31-.36,3.95.26.8.77.51,2.41.81,4.47"/><path id="Fill-858" d="M407.09,465c.42-2.4.33-3.89.92-4.85.93-1.5,2.59-1.62,3.47-.05.53,1,.6,3.1,0,3.79s-2.27.65-4.42,1.11"/><path id="Fill-860" d="M127.37,153c1.23.27,3,.15,3.57.91s.18,2.53.2,3.86c-1.3-.07-3,.31-3.8-.35s-.62-2.32-.88-3.54l.91-.88"/><path id="Fill-862" d="M178.51,153c1.83.32,3.2.33,4.31.91.34.17.36,2.26-.11,2.87-1.33,1.7-3,1.08-4.28-.19-.41-.42,0-1.8.08-3.59"/><path id="Fill-864" d="M331.21,433.69c1.67.12,3.36,0,3.42.27a9.93,9.93,0,0,1-.07,4.24c-.08.32-2.35.51-2.7,0-.58-.91-.41-2.46-.65-4.48"/><path id="Fill-866" d="M484.17,718c.22-2-.1-3.72.66-4.47.58-.58,3.23-.39,3.68.25.69,1,.55,2.72.12,3.94-.14.4-2.28.17-4.46.28"/><path id="Fill-868" d="M509.46,489.11c.29-2.36.29-4.6.62-4.68a6,6,0,0,1,3.87.45c.38.19.46,3.06.12,3.25-1.14.63-2.51.61-4.61,1"/><path id="Fill-870" d="M386,233.71a13,13,0,0,1-3.84-.88c-.46-.25-.25-1.78-.34-2.73a18.44,18.44,0,0,1,4.09.44c.43.15.49,1.51.73,2.33l-.64.84"/><path id="Fill-872" d="M178.25,102.4c2.13.49,3.82.42,4.4,1.14a3.11,3.11,0,0,1-.09,3.28,3.71,3.71,0,0,1-3.5-.08c-.72-.63-.48-2.24-.81-4.34"/><path id="Fill-874" d="M514.28,616.81c-2.21-.54-3.92-.47-4.48-1.21s-.18-2.35-.21-3.57c1.36.07,3-.29,4,.35.69.47.43,2.23.73,4.43"/><path id="Fill-876" d="M387,209.62c-1.57-.35-3.31-.44-4.64-1.15-.56-.29-.79-2.41-.28-2.83a3.65,3.65,0,0,1,5.08.44c.58.57.46,1.73.66,2.63-.27.3-.54.61-.82.91"/><path id="Fill-878" d="M381.8,336.11c.25-1.73.27-3.48.54-3.52a8.73,8.73,0,0,1,4,.33c.33.11.36,2.57.12,2.65a24.29,24.29,0,0,1-4.66.54"/><path id="Fill-880" d="M279.42,261.42c.4-2.14.23-3.9,1-4.46a3.4,3.4,0,0,1,3.44.24,3.59,3.59,0,0,1-.06,3.48c-.61.7-2.27.45-4.34.74"/><path id="Fill-882" d="M483,102.4c2.11.31,3.45.24,4.51.8.37.19.44,2.2,0,2.88a2.14,2.14,0,0,1-3.67.2c-.54-.6-.45-1.87-.84-3.88"/><path id="Fill-884" d="M585.34,668.61c.47-2.28.4-4.11,1-4.48,1-.59,2.43-.22,3.68-.26,0,1.27.38,3.13-.18,3.66-.84.79-2.37.65-4.52,1.08"/><path id="Fill-886" d="M432.38,356.59c2.17.41,4,.23,4.56,1s0,2.52-.08,3.83c-1.34-.09-2.95.22-3.92-.43-.63-.42-.33-2.24-.56-4.39"/><path id="Fill-888" d="M484.17,743.3c.19-2.08.1-3.44.54-4.6.12-.32,2.61-.26,2.71,0a8.05,8.05,0,0,1,.23,3.9c-.07.32-1.71.35-3.48.67"/><path id="Fill-890" d="M305.92,260.22c.44-2.32.37-4.2.95-4.51,1-.57,2.44-.19,3.69-.2,0,1.29.45,3.22-.09,3.72-.85.77-2.37.59-4.55,1"/><path id="Fill-892" d="M305.92,285.51c.4-1.82.38-3.29.8-3.41a15,15,0,0,1,3.87-.15c0,.93.36,2.45,0,2.67-1.05.56-2.44.53-4.62.89"/><path id="Fill-894" d="M616.66,668.61c-2.13-.53-3.75-.47-4.51-1.27-.6-.63-.14-2.3-.15-3.51,1.4.06,3-.27,4.14.33.59.31.32,2.28.52,4.45"/><path id="Fill-896" d="M819,611.6l-4.69,5.21-1.33-.37c.24-1.45,0-3.13.83-4.29,1-1.52,3-1.86,5.19-.55"/><path id="Fill-898" d="M483,362.62c.49-2.38.47-4.33,1-4.6,1.07-.49,2.48,0,3.76.05-.08,1.17.22,2.94-.3,3.37-.92.76-2.34.68-4.5,1.18"/><path id="Fill-900" d="M280.63,332.5c2.17.3,3.95.06,4.43.74a3.91,3.91,0,0,1-.12,3.61c-.37.56-2.63.65-3.24.08s-.62-2.27-1.07-4.43"/><path id="Fill-902" d="M458.88,612.09c1.95,0,3.9-.32,4.24.13.62.81.81,2.69.21,3-1,.56-2.77.27-4.22.34-.06-1-.13-2-.23-3.5"/><path id="Fill-904" d="M514.28,540.91c-2.11-.37-3.65-.19-4.42-.93-.56-.53-.5-3,0-3.34a4,4,0,0,1,3.58-.21c.63.37.47,2.26.83,4.48"/><path id="Fill-906" d="M510.67,845.7c.4-2.13.43-3.51,1-4.59.22-.41,1.7-.13,2.61-.16a13.29,13.29,0,0,1-.28,3.81c-.17.48-1.61.49-3.33.94"/><path id="Fill-908" d="M305.92,234.92c.48-2.23.41-4.06,1.08-4.5.92-.61,2.4-.17,3.65-.18,0,1.37.36,3.18-.27,4s-2.3.44-4.46.72"/><path id="Fill-910" d="M331.21,459.16l3.52-.17c0,1.44.34,3.2-.2,4.2-.37.69-2.21.84-2.93.27-.51-.41-.25-2.39-.39-4.3"/><path id="Fill-912" d="M207.63,260.22c-.84-.25-2.14-.21-2.4-.81a13.52,13.52,0,0,1-.48-3.91c1,0,2.39-.37,2.81.21.63.89.57,2.46.8,3.74-.25.25-.49.51-.73.77"/><path id="Fill-914" d="M258.2,107.22a16.92,16.92,0,0,1-3.85-1.18c-.42-.24-.11-1.58-.12-2.42a13.61,13.61,0,0,1,4,.26c.51.18.48,1.7.7,2.61l-.75.73"/><path id="Fill-916" d="M77.08,208.81A15.4,15.4,0,0,1,78.26,205c.26-.43,1.59-.09,2.44-.1-.08,1.26.13,2.66-.32,3.72-.27.61-1.61.67-2.46,1l-.84-.81"/><path id="Fill-918" d="M102.37,285.51c.25-2.05.15-3.46.68-4.53.21-.43,2.59-.3,2.64-.08a11.31,11.31,0,0,1,.18,4.22c0,.25-1.75.21-3.5.39"/><path id="Fill-920" d="M509.46,692.7c.64-2.18.71-3.66,1.51-4.61.4-.47,2.16,0,3.31.07-.11,1.33.09,2.8-.49,3.94-.26.5-2.09.33-4.33.6"/><path id="Fill-922" d="M432.38,463.81c.43-2.14.25-3.7,1-4.41s2.37-.31,3.63-.41c0,1.34.44,2.86-.11,4-.3.59-2.26.48-4.54.86"/><path id="Fill-924" d="M868.38,311.82c-2.42.57-4.12-.08-4.72-1.92-.36-1.09.34-2.52.55-3.8l1.24-.11,2.93,5.83"/><path id="Fill-926" d="M483,233c.24-.85.18-2.15.79-2.45,1-.48,2.44-.32,3.69-.42.08,1,.63,2.52.13,2.84-1,.62-2.52.55-3.84.77L483,233"/><path id="Fill-928" d="M585.34,765c2.13.11,4-.23,4.52.35s.08,2.13,0,3.24c-1.31,0-2.77.18-3.87-.26-.53-.22-.39-1.69-.69-3.33"/><path id="Fill-930" d="M331.21,362.62c.69-2.19.8-3.65,1.6-4.62.4-.47,2.11,0,3.22.06-.14,1.3.05,2.76-.56,3.83-.31.55-2.06.4-4.26.73"/><path id="Fill-932" d="M254.13,286.72c.22-2.26,0-4.16.51-4.38a5.83,5.83,0,0,1,3.87-.21c.34.09.67,2.83.22,3.19-1,.79-2.42.81-4.6,1.4"/><path id="Fill-934" d="M432.38,383.1c2.17.15,3.89-.13,4.48.43s.19,2,.21,3c-1.26,0-2.73.35-3.72-.08-.63-.26-.54-1.7-1-3.39"/><path id="Fill-936" d="M560.05,769.81c.45-2.17.31-3.81,1-4.4s2.42-.33,3.68-.42c0,1.35.37,3-.24,4-.41.67-2.27.49-4.48.85"/><path id="Fill-938" d="M259,81.92c-2.08-.3-3.46-.22-4.48-.76-.48-.26-.25-1.75-.34-2.67,1.22,0,2.57-.4,3.62,0,.57.21.64,1.69,1.2,3.42"/><path id="Fill-940" d="M228.84,260.22c.18-2,0-3.48.54-4.48.26-.49,2.62-.4,2.71-.09a8.83,8.83,0,0,1,.22,4.09c-.06.32-1.8.27-3.47.48"/><path id="Fill-942" d="M208.36,234.92c-1.7-.41-3.14-.35-3.36-.89-.42-1.1-.18-2.53-.21-3.83,1,0,2.48-.37,2.93.21.59.79.4,2.34.64,4.51"/><path id="Fill-944" d="M387.19,462.61c-1.32-.18-2.8-.08-3.89-.67-.49-.26-.21-1.91-.28-2.94,1.25.06,2.61-.17,3.7.26.6.24.75,1.59,1.1,2.44-.21.29-.42.6-.63.91"/><path id="Fill-946" d="M254.13,260.22c.43-1.64.34-3,1-3.35a4,4,0,0,1,3.31.19c.6.5.69,2.35.16,2.7-.82.54-2.36.3-4.47.46"/><path id="Fill-948" d="M484.17,616.81c.2-2.18,0-4,.5-4.48.73-.62,2-.2,3-.22,0,1.27.33,2.87-.13,3.7s-1.72.58-3.37,1"/><path id="Fill-950" d="M203.55,306c1.88.35,3.47.38,3.51.69a9,9,0,0,1-.29,3.89c-.08.28-2.2.38-2.42,0-.51-1-.47-2.36-.8-4.55"/><path id="Fill-952" d="M488.13,540.91c-1.16-.22-2.75-.15-3.37-.73s-.43-1.87-.59-2.84c1.32,0,2.91-.25,3.86.25.73.37.67,1.72,1,2.64Z"/><path id="Fill-954" d="M203.55,280.7c2.19.39,3.86.2,4.41.93s.3,2.48.38,3.77c-1.2,0-2.74.39-3.52-.22s-.7-2.26-1.27-4.48"/><path id="Fill-956" d="M687.93,204.84l3.4,5.1c-2,1.16-3.72,1.37-4.56-.55-.55-1.26,0-3,0-4.59l1.18,0"/><path id="Fill-958" d="M233.66,336.11l-3.57-.21c0-1.3-.26-3,.25-3.8s1.84-.57,2.82-.81c.13,1.34.27,2.67.5,4.82"/><path id="Fill-960" d="M178.31,179.5c2.06.26,3.71.1,4.47.69.56.44.22,2.62-.23,2.74a7.85,7.85,0,0,1-4.1-.21c-.37-.11-.09-1.65-.14-3.22"/><path id="Fill-962" d="M381.8,566.21c.28-2.19,0-4.07.7-4.51,1-.61,2.64-.13,4-.12,0,1.27.39,2.89-.25,3.73s-2.32.53-4.46.9"/><path id="Fill-964" d="M204.75,332.5l3.61.12c-.08,1.4.16,3-.35,4.12-.25.58-1.84.41-2.83.58-.12-1.37-.24-2.73-.43-4.82"/><path id="Fill-966" d="M463.7,515.61c-2.22-.33-4.21-.19-4.53-.79a4.26,4.26,0,0,1,.3-3.65c.24-.44,2.8-.54,3.18-.06.72.93.63,2.38,1.05,4.5"/><path id="Fill-968" d="M101.17,306l3.61.2a24.59,24.59,0,0,1-.47,4.4,4,4,0,0,1-2.51,0,23.74,23.74,0,0,1-.63-4.64"/><path id="Fill-970" d="M332.42,387.2a13,13,0,0,1,.7-3.77c.21-.43,2.42-.4,2.48-.18a7.65,7.65,0,0,1,.29,3.81c-.13.5-1.71.58-2.63.85l-.84-.71"/><path id="Fill-972" d="M105.93,183.12l-3.56-.23c.12-1.35-.13-3,.49-3.95.48-.72,2-.46,3.13-.64,0,1.36,0,2.72-.06,4.82"/><path id="Fill-974" d="M233.66,208.35l-3.61.06c.08-1.11-.21-2.52.36-3.24.45-.57,2-.28,3-.37.06,1,.13,2,.24,3.55"/><path id="Fill-976" d="M433.59,566.21c.16-2.15-.11-3.71.47-4.52.41-.57,2-.14,3.06-.17,0,1.27.27,2.67-.15,3.75-.21.55-1.68.51-3.38.94"/><path id="Fill-978" d="M80.7,184.32c-1.7-.45-3.19-.42-3.39-1a5,5,0,0,1,.2-3.5c.21-.43,2.34-.47,2.58,0,.52,1,.38,2.37.61,4.49"/><path id="Fill-980" d="M381.8,408.39c2.17.31,3.65.19,4.55.77.52.33.11,1.79.12,2.74-1.27,0-2.68.3-3.74-.11-.56-.22-.5-1.68-.93-3.4"/><path id="Fill-982" d="M534.76,719.21c.26-1.73.19-3.33.58-3.43a17.65,17.65,0,0,1,4.19-.13c-.06,1,.26,2.51-.27,2.83-1,.58-2.45.45-4.5.73"/><path id="Fill-984" d="M254.13,306c2.25.42,3.75.38,4.56,1,.53.39.07,1.73.05,2.65-1.28-.07-2.72.12-3.79-.32-.54-.22-.44-1.57-.82-3.3"/><path id="Fill-986" d="M304.72,336.11c.49-1.67.46-3.06,1.09-3.35,1-.46,2.46-.17,3.72-.2-.11,1,.19,2.41-.46,3s-2.22.31-4.35.51"/><path id="Fill-988" d="M126.46,183.12c.42-1.66.38-3,.9-3.22a12.7,12.7,0,0,1,3.76-.4c0,1.05.44,2.62-.13,3-.82.6-2.38.37-4.53.58"/><path id="Fill-990" d="M489,515.61c-2.3-.64-4-.64-4.53-1.39s-.1-2.25-.08-3.43c1.26.1,2.9-.21,3.66.42s.53,2.18.95,4.4"/><path id="Fill-992" d="M183.07,203.59c-.49,2.31-.41,4.18-1.1,4.59-.92.55-2.45,0-3.72-.13.14-1.16-.11-2.73.51-3.35s2.18-.62,4.31-1.11"/><path id="Fill-994" d="M157.78,312c-2.15-.49-3.69-.42-4.39-1.13s-.56-2.74,0-3.09c.9-.6,2.8-.84,3.53-.29s.52,2.27.9,4.51"/><path id="Fill-996" d="M585.34,790.29c2,.19,3.52,0,4.54.58.5.27.17,1.92.22,3a14.66,14.66,0,0,1-4-.12c-.43-.13-.39-1.72-.72-3.41"/><path id="Fill-998" d="M564.87,795.1c-2.16-.32-3.88-.14-4.28-.72a3.86,3.86,0,0,1-.22-3.49c.33-.56,2.89-.83,3.31-.36.77.87.7,2.38,1.19,4.57"/><path id="Fill-1000" d="M407.09,489.11c.41-1.69.31-3.09.92-3.36a4.33,4.33,0,0,1,3.37.18c.58.35.7,2.32.27,2.54-1,.51-2.41.4-4.56.64"/><path id="Fill-1002" d="M433.59,591.51c.38-2.18.31-3.75.88-4.45s1.76-.26,2.68-.32c0,1.36.23,2.9-.2,4-.22.58-1.65.42-3.36.75"/><path id="Fill-1004" d="M535.5,739.69a15.74,15.74,0,0,1,3.75,1c.42.24.23,1.61.33,2.46a14,14,0,0,1-4-.09c-.5-.15-.6-1.65-.87-2.53l.74-.89"/><path id="Fill-1006" d="M178.25,260.22c.48-1.79.5-3.27,1-3.43a12,12,0,0,1,3.74-.07c0,1,.31,2.53-.16,2.79-1,.55-2.41.43-4.57.71"/><path id="Fill-1008" d="M229.71,432.49c.84.32,2.21.44,2.43,1a12.49,12.49,0,0,1,.31,3.8c-.93-.08-2.41.16-2.69-.31a13.28,13.28,0,0,1-.92-3.82l.87-.69"/><path id="Fill-1010" d="M228.84,107.22c.43-1.8.44-3.27.88-3.41a8.15,8.15,0,0,1,3.74,0c.18,0,.34,2.32,0,2.5-1.09.53-2.45.53-4.59.88"/><path id="Fill-1012" d="M534.76,663.79c2.06.1,3.51-.18,4.34.35.55.35.64,2.43.17,2.75a4.35,4.35,0,0,1-3.39.3c-.61-.26-.63-1.75-1.12-3.4"/><path id="Fill-1014" d="M331.21,408.39c1.68.38,3,.2,3.34.86.46.94.19,2.49.23,3.78-.9,0-2.13.47-2.61-.1-.58-.73-.54-2.32-1-4.54"/><path id="Fill-1016" d="M178.25,234.92c.39-1.65.25-3,.9-3.35.95-.47,2.48-.17,3.76-.2,0,1,.46,2.35-.16,2.9s-2.35.39-4.5.65"/><path id="Fill-1018" d="M385.91,361.41a14.16,14.16,0,0,1-3.91-.81c-.4-.2-.08-1.79-.09-2.74a12.39,12.39,0,0,1,3.82.17c.53.19.6,1.64.89,2.51l-.71.87"/><path id="Fill-1020" d="M458.88,539.71c.15-1.58-.1-2.94.41-3.3.72-.5,2-.24,3.06-.31,0,1,.37,2.18-.1,2.88-.35.53-1.76.42-3.37.73"/><path id="Fill-1022" d="M356.51,230.1c2.16.3,3.52.24,4.52.75.42.2.37,2.25,0,2.4a6.28,6.28,0,0,1-3.63.32c-.47-.13-.46-1.69-.88-3.47"/><path id="Fill-1024" d="M432.38,510.79c2.1.18,3.65-.06,4.38.5.58.44.58,2.39.05,2.7a4.67,4.67,0,0,1-3.51.15c-.6-.26-.52-1.7-.92-3.35"/><path id="Fill-1026" d="M383,591.51c.12-2.07-.14-3.51.38-4.38.3-.52,2.35-.61,2.7-.11a4.15,4.15,0,0,1,.32,3.34c-.27.63-1.74.64-3.4,1.15"/><path id="Fill-1028" d="M534.76,642.11c.19-1.68,0-3.18.44-3.31a7.1,7.1,0,0,1,3.85-.08c.44.13.72,2.32.37,2.49-1.09.53-2.52.54-4.66.9"/><path id="Fill-1030" d="M75.88,157.79c.23-1.57.07-3.14.55-3.3a5.69,5.69,0,0,1,3.83.09c.57.31.6,2.34,0,2.92s-2.32.2-4.36.29"/><path id="Fill-1032" d="M26.5,209.62c.37-1.63.3-2.9.86-3.35s1.78-.17,2.71-.21c0,1,.23,2.28-.25,3-.32.5-1.69.31-3.32.53"/><path id="Fill-1034" d="M483,487.9c.44-1.72.37-3.15,1-3.39,1.07-.42,2.54-.11,3.85-.11-.13.91.11,2.17-.5,2.66s-2.19.48-4.32.84"/><path id="Fill-1036" d="M539.58,693.91c-1.63-.55-2.86-.52-3.4-1.3-.4-.58-.2-3,.21-3.19a2.65,2.65,0,0,1,2.84.17c.46.4.22,2.19.35,4.32"/><path id="Fill-1040" d="M332.42,485.5c1.62.17,3.22.07,3.34.4a3.47,3.47,0,0,1-.1,2.93c-.32.46-1.94.2-3,.26-.07-1-.15-2-.26-3.59"/><path id="Fill-1042" d="M254.13,208.41c.18-1.64.13-3.32.42-3.38a21.6,21.6,0,0,1,4.27-.23c0,1.09.3,3,0,3.13-1.23.46-2.67.34-4.66.48"/><path id="Fill-1044" d="M183.07,285.51c-2-.3-3.39-.3-4.53-.8-.37-.16-.35-2.3-.14-2.35a8.37,8.37,0,0,1,3.86-.35c.4.08.44,1.77.81,3.5"/><path id="Fill-1046" d="M408.29,539.71c.32-1.7.26-3.15.69-3.38.83-.42,1.94-.15,2.93-.17-.08,1,.16,2.39-.33,3s-1.69.34-3.29.56"/><path id="Fill-1048" d="M304.72,412c.49-1.7.48-3.07,1.06-3.33,1-.46,2.39-.22,3.62-.27,0,1,.4,2.58-.16,3-.81.59-2.35.38-4.52.61"/><path id="Fill-1050" d="M77.08,234.92c.25-2.11.13-3.53.66-4.53.24-.45,2.54-.33,2.66,0a5.53,5.53,0,0,1,0,3.57c-.23.55-1.68.51-3.32.93"/><path id="Fill-1052" d="M204.75,362.62c.46-2.23.45-3.68,1.05-4.56.36-.52,1.68-.11,2.56-.12-.08,1.24.11,2.66-.35,3.66-.26.59-1.56.53-3.26,1"/><path id="Fill-1054" d="M77.08,260.22c.08-2.05-.13-3.42.31-4.49.17-.4,2.53-.47,2.77,0a5.54,5.54,0,0,1,.39,3.66c-.1.44-1.76.47-3.47.87"/><path id="Fill-1056" d="M432.38,488.28c.44-.89.6-2.16,1.37-2.56s2.27-.09,3.44-.08c-.1,1,.25,2.46-.39,2.94s-2.39.39-3.64.53l-.78-.83"/><path id="Fill-1058" d="M280.63,413.21c.13-1.62,0-3.21.31-3.35a4.36,4.36,0,0,1,3,0,3.32,3.32,0,0,1,0,2.61c-.6.58-1.79.44-3.33.71"/><path id="Fill-1060" d="M260.15,230.1c-.36,1.79-.43,3.47-.76,3.52a9.55,9.55,0,0,1-3.93-.31c-.18-.06-.2-2.43.13-2.56a20.42,20.42,0,0,1,4.56-.65"/><path id="Fill-1062" d="M463.7,642.11c-1.56-.22-2.84,0-3.31-.58a2.63,2.63,0,0,1,.09-2.62,2.57,2.57,0,0,1,2.61-.12c.54.43.37,1.76.61,3.32"/><path id="Fill-1064" d="M153,285.51c.32-1.7.2-3.23.74-3.41a5.63,5.63,0,0,1,3.66.26c.49.22.58,2.12.1,2.42-.89.53-2.34.43-4.5.73"/><path id="Fill-1066" d="M153,234.92c.22-1.59,0-2.86.54-3.28s1.84-.26,2.81-.34c.07,1,.5,2.22.09,3-.25.48-1.76.35-3.44.61"/><path id="Fill-1068" d="M81.22,285.51c-.89-.23-2.09-.17-2.59-.76s-.25-1.8-.34-2.75c.95,0,2.13-.32,2.78.15s.57,1.72.83,2.64l-.68.72"/><path id="Fill-1070" d="M509.46,666.7c.18-.89.05-2.13.62-2.57s1.89-.26,2.88-.34c0,1,.34,2.13-.12,2.82s-1.71.56-2.61.8l-.77-.71"/><path id="Fill-1072" d="M509.46,820.4c.35-1.52.29-2.65.89-3.38.34-.41,1.78-.14,2.73-.19a11,11,0,0,1-.37,3.17c-.13.31-1.6.22-3.25.4"/><path id="Fill-1074" d="M381.87,30.33l5.41-1.42.54.83c-.8,1-1.48,2.45-2.41,2.71-1.09.32-2.4-.45-3.61-.75,0-.45.05-.91.07-1.37"/><path id="Fill-1076" d="M433.59,539.71c.44-1.7.42-3,1-3.36s1.72-.15,2.62-.17c-.06,1,.2,2.28-.27,3-.33.51-1.64.31-3.32.53"/><path id="Fill-1078" d="M305.92,383.1c1.61.21,2.87,0,3.32.55a2.93,2.93,0,0,1-.1,2.75,2.73,2.73,0,0,1-2.65-.08c-.43-.26-.32-1.62-.57-3.22"/><path id="Fill-1080" d="M279.42,357.8c2.28.28,3.88.11,4.44.65s.28,1.83.35,2.79c-1.16,0-2.61.4-3.41,0s-.74-1.66-1.38-3.41"/><path id="Fill-1082" d="M359.41,566.21c-.92-.41-2.19-.53-2.66-1.33s-.12-2.31-.14-3.49c.88.19,2.05,0,2.55.67s.66,2.18,1,3.33l-.71.82"/><path id="Fill-1084" d="M30.11,234.92c-1.61-.4-2.78-.35-3.34-.94s-.19-1.72-.24-2.62c1,0,2.18-.24,3,.2.45.23.33,1.66.58,3.36"/><path id="Fill-1086" d="M102.37,207.74c.32-.92.38-2.11,1-2.66s1.71-.19,2.61-.25c-.15,1,0,2.13-.52,2.81s-1.6.54-2.43.77l-.67-.67"/><path id="Fill-1088" d="M77.29,337.21c-.54-2.47-.08-4.27,2-4.71.4-.08,1.44,1.34,1.4,2-.11,2.55-1.52,3.06-3.4,2.69"/><path id="Fill-1090" d="M155.81,260.22c-.87-.34-2-.45-2.54-1.07s-.23-1.64-.31-2.49c1,0,2.21-.26,2.83.22s.55,1.73.78,2.65l-.76.69"/><path id="Fill-1092" d="M385.39,383.1c-.05,1.61.16,3-.16,3.2a5.24,5.24,0,0,1-3,.32c-.23,0-.58-2.12-.28-2.35.81-.6,1.94-.71,3.48-1.17"/><path id="Fill-1094" d="M513.08,514.41c-1.63-.33-2.78-.22-3.4-.79a2.84,2.84,0,0,1,.17-2.5,3.3,3.3,0,0,1,2.8,0c.4.21.24,1.66.43,3.32"/><path id="Fill-1096" d="M383,713.18c1.76.39,3.24.38,3.37.81a7.13,7.13,0,0,1,0,3.67,3.84,3.84,0,0,1-2.43.23,26.63,26.63,0,0,1-.95-4.71"/><path id="Fill-1098" d="M509.46,790.29c1.71.33,3.14.28,3.38.73a2.91,2.91,0,0,1-.18,2.64,3,3,0,0,1-2.56-.09c-.55-.58-.38-1.71-.64-3.28"/><path id="Fill-1100" d="M387.82,845.7c-1.79-.19-3.42-.18-3.46-.4a11.64,11.64,0,0,1,.06-4.12,5.08,5.08,0,0,1,2.47-.22,31.72,31.72,0,0,1,.93,4.74"/><path id="Fill-1102" d="M534.76,768.6c.17-1.66.08-3.24.4-3.36a3.47,3.47,0,0,1,2.79.08c.41.23.3,1.74.42,2.66l-3.61.62"/><path id="Fill-1104" d="M408.29,591.51c.2-1.59,0-2.91.48-3.21a2.94,2.94,0,0,1,2.71-.13,2.74,2.74,0,0,1,.17,2.63c-.47.56-1.75.42-3.36.71"/><path id="Fill-1106" d="M230,230.1c1.62.28,2.73.21,3.48.72a3,3,0,0,1-.41,2.51,2.5,2.5,0,0,1-2.52.08c-.49-.38-.32-1.71-.55-3.31"/><path id="Fill-1108" d="M484.17,692.7c.18-1.63,0-3.16.43-3.35a3,3,0,0,1,2.79.17c.49.39.29,1.82.4,2.79l-3.62.39"/><path id="Fill-1110" d="M408.29,566.21c.39-1.76.34-3.1.82-3.39.72-.43,1.81-.11,2.74-.11,0,.93.25,2.21-.19,2.7s-1.68.46-3.37.8"/><path id="Fill-1112" d="M667.24,154.53l-5.4,2.08-.62-.5c.58-1,1-2.71,1.77-3,1.28-.41,2.8.12,4.21.26,0,.38,0,.76,0,1.12"/><path id="Fill-1114" d="M51.79,233.71c.26-1.67.13-3.06.61-3.35.73-.46,1.87-.17,2.83-.19,0,.91.39,2.24,0,2.65-.6.59-1.78.52-3.42.89"/><path id="Fill-1116" d="M255.33,437.31c.27-1.66.15-3,.62-3.32.72-.47,1.85-.23,2.8-.28,0,1,.43,2.34,0,2.88s-1.76.42-3.41.72"/><path id="Fill-1118" d="M127.67,310.81c.37-1.66.32-2.87.82-3.27s1.66-.26,2.53-.34c.06,1,.51,2.35.08,3s-1.73.38-3.43.65"/><path id="Fill-1120" d="M383,871a30.77,30.77,0,0,1,.61-4.53c.1-.34,1.14-.2,1.75-.29a26.34,26.34,0,0,1-.05,4c0,.34-1.08.42-2.31.84"/><path id="Fill-1122" d="M127.67,280.7c1.68.48,2.81.47,3.36,1.06s.16,1.68.2,2.55c-.91-.07-2,.15-2.7-.32-.51-.34-.46-1.58-.86-3.29"/><path id="Fill-1124" d="M458.88,718c.32-1.71.27-3.15.68-3.36.81-.42,1.87-.17,2.82-.21,0,1,.32,2.62-.11,3-.64.59-1.8.36-3.39.56"/><path id="Fill-1126" d="M51.79,260.22c.3-1.66.24-3.05.68-3.31a2.94,2.94,0,0,1,2.65,0,3.18,3.18,0,0,1,0,2.62c-.59.56-1.72.4-3.33.67"/><path id="Fill-1128" d="M280.63,387.91c.1-1.48-.2-2.76.33-3.24a3,3,0,0,1,2.77-.05c.59.65.39,1.91.51,2.91l-3.61.38"/><path id="Fill-1130" d="M310.74,361.41c-1.65-.38-2.73-.34-3.38-.89a2.82,2.82,0,0,1,0-2.35,3.38,3.38,0,0,1,2.74-.14c.43.2.33,1.66.6,3.38"/><path id="Fill-1132" d="M484.17,663.79c1.49.2,2.62,0,3.1.53s.37,2,.52,3c-1,0-2,.24-2.8-.2-.43-.24-.43-1.66-.82-3.36"/><path id="Fill-1134" d="M26.5,310.81c.21-1.63,0-3,.52-3.32.73-.48,2-.21,3-.26,0,1,.31,2.2-.14,2.95-.31.5-1.71.36-3.37.63"/><path id="Fill-1136" d="M484.17,768.6c.28-1.62.14-2.83.68-3.31s1.78-.23,2.72-.29c.05,1,.44,2.19,0,3-.27.49-1.74.37-3.43.65"/><path id="Fill-1138" d="M260.15,336.11c-2-.26-3.41-.21-4.54-.71-.37-.16-.33-2.45-.12-2.51a7.7,7.7,0,0,1,3.77-.25c.42.11.47,1.71.89,3.47"/><path id="Fill-1140" d="M153,332.5c1.65.22,3,0,3.36.55.47.69.14,2,.16,3-.92,0-2.11.31-2.69-.16s-.48-1.73-.83-3.36"/><path id="Fill-1142" d="M285.44,438.51c-1.64-.31-2.87-.16-3.32-.72s-.21-1.81-.27-2.76c1,0,2.18-.35,2.93.09.49.3.38,1.71.66,3.39"/><path id="Fill-1146" d="M50.59,183.12c.34-1.75.31-3.14.71-3.34a7.9,7.9,0,0,1,2.9-.28c-.11.88,0,2.15-.38,2.55-.63.61-1.68.61-3.23,1.07"/><path id="Fill-1148" d="M183.07,336.11c-1.64-.3-2.69-.21-3.36-.74a2.7,2.7,0,0,1,0-2.37,2.37,2.37,0,0,1,2.4-.29c.51.34.5,1.66.92,3.4"/><path id="Fill-1150" d="M484.17,642.11c.22-1.62,0-2.85.55-3.25a2.82,2.82,0,0,1,2.66-.07,2.44,2.44,0,0,1,.12,2.5c-.38.53-1.67.46-3.33.82"/><path id="Fill-1152" d="M232.89,413.21c-.89-.3-2.14-.38-2.58-1s-.17-1.74-.21-2.64c.86.08,2.06-.11,2.5.32.64.66.73,1.76,1.06,2.68l-.77.61"/><path id="Fill-1154" d="M408.29,514.41c.16-1.66.07-3.34.37-3.44a3.74,3.74,0,0,1,2.9.26,3.41,3.41,0,0,1,.16,2.61c-.83.48-1.94.38-3.43.57"/><path id="Fill-1158" d="M356.51,386.71c.2-1.58,0-2.8.53-3.29a2.66,2.66,0,0,1,2.58,0,2.69,2.69,0,0,1,.26,2.65c-.32.5-1.74.36-3.37.62"/><path id="Fill-1160" d="M127.67,260.22c.28-1.71.17-3.08.66-3.41a2.48,2.48,0,0,1,2.47.32,3.1,3.1,0,0,1,.36,2.42c-.8.45-1.84.41-3.49.67"/><path id="Fill-1164" d="M356.51,361.41c.39-1.65.32-2.84.87-3.27s1.78-.26,2.71-.34c0,.87.21,2-.25,2.54s-1.65.58-3.33,1.07"/><path id="Fill-1166" d="M102.26,154.2c1.37.85,2.74,1.7,4.93,3-1.28.76-2.75,2-3.07,1.75a19.17,19.17,0,0,1-3-3.73l1.09-1.06"/><path id="Fill-1168" d="M55.4,208.41c-1.64-.4-2.73-.37-3.37-.93a2.6,2.6,0,0,1,0-2.28A3.34,3.34,0,0,1,54.8,205c.44.24.33,1.66.6,3.4"/><path id="Fill-1170" d="M102.37,255.4c1.53.17,3,0,3.23.44.49.85.29,2.06.39,3.12-1,0-2.34.26-2.92-.24s-.43-1.82-.7-3.32"/><path id="Fill-1172" d="M309.53,437.31c-1.66-.19-3.24-.07-3.41-.46-.39-.9-.09-2-.07-3.08,1.08,0,2.51-.3,3.11.2s.26,1.81.37,3.34"/><path id="Fill-1174" d="M509.46,763.78c1.62.2,3,0,3.33.5.47.77.21,2,.26,3-1,0-2.4.41-3-.07s-.35-1.81-.56-3.38"/><path id="Fill-1176" d="M433.59,612l3.61.31c-.1,1,.1,2.16-.4,2.83a2.47,2.47,0,0,1-2.42.26c-.56-.6-.47-1.8-.79-3.4"/><path id="Fill-1178" d="M280.63,463.81c.19-1.58,0-2.86.5-3.26a2.76,2.76,0,0,1,2.67,0,2.51,2.51,0,0,1,.18,2.53c-.44.54-1.73.43-3.35.75"/><path id="Fill-1180" d="M462.49,692.7c-1.7-.54-2.79-.61-3.43-1.2-.38-.35-.05-1.52,0-2.32.88,0,2-.29,2.55.15s.5,1.64.92,3.37"/><path id="Fill-1184" d="M0,183.12c.3-1.68.21-3,.66-3.26a2.79,2.79,0,0,1,2.56-.09,2.8,2.8,0,0,1,.21,2.41c-.71.57-1.8.55-3.43.94"/><path id="Fill-1188" d="M25.29,260.22c.3-1.64.19-2.77.73-3.38a2.49,2.49,0,0,1,2.39.16,2.8,2.8,0,0,1,.27,2.64c-.34.51-1.74.34-3.39.58"/><path id="Fill-1190" d="M462.49,743.3c-1.57-.36-2.64-.36-3.42-.89a3.17,3.17,0,0,1,.07-2.33,4.83,4.83,0,0,1,2.95-.27c.26.06.22,1.7.4,3.49"/><path id="Fill-1192" d="M463.7,667.41c-1.56-.23-2.74,0-3.37-.62-.45-.42-.14-1.87-.18-2.85,1,0,2.08-.37,2.82.08.48.3.41,1.75.73,3.39"/><path id="Fill-1194" d="M127.67,208.41c.34-1.2.37-2.21.68-2.29a6.52,6.52,0,0,1,2.81.09c.14,0,.21,1.6-.09,1.73a14.8,14.8,0,0,1-3.4.47"/><path id="Fill-1196" d="M433.59,640.9c.45-1.66.42-2.82,1-3.37s1.7-.14,2.59-.17c-.09.92.12,2-.36,2.69-.36.51-1.58.46-3.25.85"/><path id="Fill-1198" d="M383,539.71c.26-1.66.12-3.06.6-3.34.76-.46,1.92-.2,2.92-.24,0,1,.31,2.27-.15,2.79s-1.78.47-3.37.79"/><path id="Fill-1200" d="M534.76,815.58c1.6.39,2.81.36,3.38.94A2.71,2.71,0,0,1,538,819a3.52,3.52,0,0,1-2.83-.16c-.45-.28-.24-1.63-.41-3.24"/><path id="Fill-1202" d="M178.25,310.81c.33-1.69.21-2.91.7-3.22.72-.47,1.87-.29,2.84-.39,0,.83.27,2-.16,2.42s-1.69.65-3.38,1.19"/><path id="Fill-1204" d="M534.76,793.9c.4-1.72.39-3.15.87-3.43.73-.41,1.81,0,2.74,0-.07,1,.16,2.35-.29,2.76-.62.57-1.75.4-3.32.64"/><path id="Fill-1206" d="M204.75,387.91c.44-1.67.49-2.7,1-3.47a3,3,0,0,1,2.27.22,2.92,2.92,0,0,1,.05,2.56c-.23.43-1.58.37-3.34.69"/><path id="Fill-1208" d="M77.08,306c1.66.12,3.23-.07,3.38.3a3.38,3.38,0,0,1-.17,2.87,2.65,2.65,0,0,1-2.58.2c-.55-.59-.39-1.82-.63-3.37"/><path id="Fill-1210" d="M766.38,234.92a16.06,16.06,0,0,1-2.74-2.93c-.25-.44.65-1.53,1.38-3.1l2.19,5.33-.83.7"/><path id="Fill-1212" d="M433.59,718c.47-1.71.45-2.93,1.05-3.44s1.67,0,2.56.11c-.1.89.1,2-.37,2.6s-1.57.4-3.24.73"/><path id="Fill-1214" d="M513.08,640.9c-1.52-.22-2.72,0-3.31-.6-.43-.43-.37-2.48,0-2.64a4.33,4.33,0,0,1,3-.18c.29.08.17,1.75.3,3.42"/><path id="Fill-1220" d="M383,487.9c.42-1.13.45-2.06.89-2.23a8.6,8.6,0,0,1,2.71-.14c-.06.67.17,1.7-.23,1.94-.69.39-1.78.27-3.37.43"/><path id="Fill-1222" d="M26.5,285.51c.22-1.64.11-3.22.53-3.41a2.89,2.89,0,0,1,2.72.32,3,3,0,0,1,.1,2.65c-.69.51-1.83.3-3.35.44"/><path id="Fill-1224" d="M255.33,361.41c.26-1.6.16-2.92.59-3.18.79-.48,1.89-.32,2.86-.43,0,.94.38,2.34,0,2.71-.67.61-1.84.54-3.43.9"/><path id="Fill-1226" d="M78.29,357.8c1.62.14,3.1-.05,3.33.37a2.87,2.87,0,0,1-.14,2.75c-.48.54-1.84.36-2.81.49-.1-1-.21-2-.38-3.61"/><path id="Fill-1228" d="M131.28,233.71c-1.63-.44-2.66-.49-3.44-1a3.56,3.56,0,0,1,0-2.29,4.34,4.34,0,0,1,2.82-.08c.36.14.31,1.63.58,3.41"/><path id="Fill-1230" d="M101.17,336.11c.5-1.59.53-2.67,1.11-3.22s1.64-.28,2.5-.39c-.06.92.17,2-.3,2.7-.34.51-1.6.49-3.31.91"/><path id="Fill-1236" d="M50.59,284.31c.41-1.23.49-2.24.82-2.32a10.9,10.9,0,0,1,2.79,0c-.17.64-.12,1.59-.54,1.84-.64.38-1.61.27-3.07.44"/><path id="Fill-1238" d="M107.19,230.1c-.41,1.6-.41,2.8-.87,3.11a6.49,6.49,0,0,1-2.65.5c0-1-.29-2.36.13-2.77.62-.6,1.77-.49,3.39-.84"/><path id="Fill-1240" d="M255.33,408.39c1.61.38,2.72.34,3.44.93.37.3.05,1.71.05,2.63a7.43,7.43,0,0,1-2.92-.17c-.39-.18-.31-1.64-.57-3.39"/><path id="Fill-1242" d="M489,795.1c-1.63-.44-2.74-.45-3.46-1.05-.36-.3,0-1.67.07-2.56,1,.08,2-.11,2.83.35.42.24.31,1.6.56,3.26"/><path id="Fill-1244" d="M384.21,692.7c.14-1.59,0-2.87.4-3.39s1.31-.07,2-.07a8.59,8.59,0,0,1-.26,2.77c-.23.48-1.12.4-2.15.69"/><path id="Fill-1246" d="M462.49,845.7c-1.71-.58-2.74-.7-3.49-1.29-.3-.23.05-1.51.09-2.32a6.9,6.9,0,0,1,2.62.45c.42.25.39,1.44.78,3.16"/><path id="Fill-1248" d="M305.92,462.61c.24-1.14.16-2.15.54-2.26a12.86,12.86,0,0,1,3.07-.12c-.09.64.13,1.53-.34,1.86s-1.71.31-3.27.52"/><path id="Fill-1250" d="M411.91,616.81c-1.66-.48-2.72-.49-3.38-1.1-.4-.36-.16-1.64-.2-2.52a6.61,6.61,0,0,1,2.7.4c.45.28.45,1.52.88,3.22"/><path id="Fill-1254" d="M228.84,459c1.54.18,2.91,0,3.27.47a2.84,2.84,0,0,1,0,2.74,2.64,2.64,0,0,1-2.6.12c-.56-.47-.39-1.76-.65-3.33"/><path id="Fill-1256" d="M255.33,561.39c1.64.31,3,.19,3.36.72a3,3,0,0,1-.12,2.67c-.17.32-2,.32-2.4-.12s-.48-1.69-.84-3.27"/><path id="Fill-1260" d="M102.37,437.31a21.29,21.29,0,0,1,.54-3.51,3,3,0,0,1,1.69,0,8.54,8.54,0,0,1,.1,2.94c0,.22-1.08.26-2.33.53"/><path id="Fill-1262" d="M386.62,513.2c-1.54-.18-2.75-.1-3.39-.49-.41-.25-.22-1.62.17-1.74a5.59,5.59,0,0,1,3,0c.37.12.15,1.15.24,2.18"/><path id="Fill-1264" d="M179.46,361.41c.27-1.67.15-3,.64-3.34.71-.46,1.86-.19,2.83-.24,0,.89.35,2.17-.07,2.59-.6.59-1.77.57-3.4,1"/><path id="Fill-1266" d="M78.29,383.1c1.07.35,1.93.28,2.2.82a8.36,8.36,0,0,1,.2,2.74c-.7,0-1.55.25-2.06-.22-.34-.32-.21-1.7-.34-3.34"/><path id="Fill-1268" d="M458.88,815.58c1.64.44,2.81.43,3.41,1,.42.42,0,1.69,0,2.58-1-.09-2.13.11-2.87-.38-.48-.3-.34-1.62-.58-3.24"/><path id="Fill-1270" d="M484.17,819.2c.18-1.06.05-2.13.46-2.26a4.39,4.39,0,0,1,2.78.17c.45.23.49,1.63.14,1.78a12.73,12.73,0,0,1-3.38.31"/><path id="Fill-1272" d="M1.23,285.51c.05-1.47-.2-2.56.24-3.31a2.86,2.86,0,0,1,2.54,0c.61.63.57,1.79.81,2.73l-3.59.59"/><path id="Fill-1274" d="M154.16,357.8c1.12.37,2,.34,2.24.84a8.39,8.39,0,0,1,.13,2.74c-.66-.06-1.57.22-1.89-.24s-.28-1.75-.48-3.34"/><path id="Fill-1276" d="M356.51,485.5c1.47.05,2.63-.13,3.31.21.4.2.4,1.58,0,1.83a4.11,4.11,0,0,1-2.76.23c-.41-.12-.31-1.2-.52-2.27"/><path id="Fill-1278" d="M356.51,718c.37-1.62.34-2.84.9-3.44.35-.37,1.89-.1,2.32.43s.52,2.29.16,2.56c-.68.49-1.79.29-3.38.45"/><path id="Fill-1280" d="M0,255.4c1.56.27,2.85.16,3.2.64.5.7.31,1.84.41,2.8-.94,0-2.28.4-2.73,0-.61-.58-.52-1.8-.88-3.4"/><path id="Fill-1282" d="M361.32,540.91c-1.67-.47-2.91-.48-3.39-1.06s-.09-1.68-.08-2.55c.92.19,2,.14,2.69.65s.43,1.47.78,3"/><path id="Fill-1284" d="M30.11,336.11c-1.07-.27-2-.16-2.21-.63a3.83,3.83,0,0,1,.07-2.63,1.37,1.37,0,0,1,1.74-.08c.37.63.25,1.8.4,3.34"/><path id="Fill-1286" d="M336,514.41c-1.63-.31-3-.19-3.41-.75A2.82,2.82,0,0,1,333,511a2.48,2.48,0,0,1,2.37.12c.53.59.41,1.72.69,3.25"/><path id="Fill-1288" d="M462.49,768.6c-1.55-.15-2.67,0-3.34-.41-.39-.21-.33-1.64,0-1.75a4.89,4.89,0,0,1,2.81-.08c.4.13.31,1.16.53,2.24"/><path id="Fill-1292" d="M433.59,663.79c1.53.13,2.69,0,3.31.37.43.25.38,1.58,0,1.78a4.07,4.07,0,0,1-2.69.06c-.47-.17-.35-1.15-.6-2.21"/><path id="Fill-1294" d="M102.37,411.9a7.92,7.92,0,0,1,.52-2.22c.11-.19,1.58,0,1.68.28a3.12,3.12,0,0,1,0,2.29c-.24.5-1.16.66-1.79,1-.13-.43-.26-.87-.4-1.31"/><path id="Fill-1296" d="M279.47,79.51,283,82.72c-2.8,1-3.87.18-3.57-3.21"/><path id="Fill-1298" d="M360.12,590.3c-1.59-.17-2.92.05-3.25-.44-.5-.71-.28-1.93-.36-2.93.88,0,2.11-.48,2.54,0,.61.59.62,1.82,1.07,3.42"/><path id="Fill-1300" d="M411.91,640.9a12.82,12.82,0,0,1-3.43-.43c-.33-.15-.11-1.23-.14-1.89a8.12,8.12,0,0,1,2.71.06c.45.17.48,1.16.86,2.26"/><path id="Fill-1304" d="M433.59,692.7a12.76,12.76,0,0,1,.41-3.37c.16-.33,1.7-.28,1.76-.07a5.25,5.25,0,0,1,.1,2.72c-.12.38-1.13.39-2.27.72"/><path id="Fill-1306" d="M3.61,233.71C2,233.5.88,233.56.23,233.17c-.4-.24-.22-1.64.07-1.71a5.84,5.84,0,0,1,2.91.06c.39.13.24,1.12.4,2.19"/><path id="Fill-1308" d="M331.21,586.75c1.06,0,2.08-.24,2.22.16a5.39,5.39,0,0,1,0,2.9c-.12.41-1.34.66-1.49.36a16.77,16.77,0,0,1-.71-3.42"/><path id="Fill-1312" d="M50.59,309.61c.57-1.2.66-2.05,1.19-2.29a5.94,5.94,0,0,1,2.4.05c0,.57.16,1.46-.2,1.67-.68.36-1.7.32-3.39.57"/><path id="Fill-1314" d="M230,360.21c.38-1.12.33-2,.84-2.24a8.35,8.35,0,0,1,2.78-.12c-.16.63,0,1.43-.54,1.85s-1.55.29-3.08.51"/><path id="Fill-1316" d="M307.12,534.89c1.11.37,2,.31,2.28.87a3.55,3.55,0,0,1-.25,2.48,1.24,1.24,0,0,1-1.63-.1c-.34-.55-.24-1.68-.4-3.25"/><path id="Fill-1320" d="M357.71,743.3a13.22,13.22,0,0,1,.62-3.39c.21-.38,1.09-.15,1.67-.19a8,8,0,0,1,0,2.72c-.18.48-1.12.47-2.27.86"/><path id="Fill-1322" d="M458.88,791.49a14.11,14.11,0,0,1,3.39.6c.36.2.23,1.55,0,1.61a5.82,5.82,0,0,1-2.84,0c-.41-.14-.3-1.14-.54-2.25"/><path id="Fill-1324" d="M357.71,869.8c.2-1.57.14-2.66.53-3.4.21-.38,1.22-.14,1.87-.18a14.8,14.8,0,0,1-.15,3.14c-.07.29-1.13.24-2.25.44"/><path id="Fill-1330" d="M307.12,485.5c1.06.12,1.9,0,2.27.33a1.86,1.86,0,0,1-.2,1.76,1.7,1.7,0,0,1-1.72.14c-.36-.32-.22-1.19-.35-2.23"/><path id="Fill-1332" d="M51.79,386.71c.24-1.63.07-2.87.58-3.29a2.93,2.93,0,0,1,2.59-.05,2.31,2.31,0,0,1,.29,2.14c-.72.57-1.82.69-3.46,1.2"/><path id="Fill-1336" d="M153,412c.38-1.17.48-2.33.83-2.38a4.94,4.94,0,0,1,2.66.51c.25.13.1,1.51-.26,1.65A11.74,11.74,0,0,1,153,412"/><path id="Fill-1342" d="M127.67,334.91c.2-1,.12-1.88.46-2a13,13,0,0,1,2.91-.4c.06.62.4,1.67.15,1.78a17.91,17.91,0,0,1-3.52.63"/><path id="Fill-1344" d="M383,743.3a14.73,14.73,0,0,1,.5-3.44c.14-.3,1.17-.11,1.79-.14a6.75,6.75,0,0,1,0,2.46c-.2.48-1.11.58-2.28,1.12"/><path id="Fill-1348" d="M433.59,842.09c1.11.24,2,.21,2.23.53s.11,1.19.13,1.8c-.71,0-1.68.22-2.05-.08s-.2-1.17-.31-2.25"/><path id="Fill-1352" d="M1.2,204.8c1.06.2,1.78.13,2.24.5a2.19,2.19,0,0,1,0,1.65,2.47,2.47,0,0,1-1.9.12c-.24-.1-.2-1.14-.36-2.27"/><path id="Fill-1356" d="M183.07,410.8a18.06,18.06,0,0,1-3.47-.45c-.22-.07-.18-1.6.11-1.71a3.86,3.86,0,0,1,2.51-.07c.43.18.47,1.14.85,2.23"/><path id="Fill-1360" d="M1.2,310.81c.22-1.61.17-2.73.52-3.26s1.34-.47,1.55-.09A3.75,3.75,0,0,1,3.48,310c-.31.56-1.15.49-2.28.86"/><path id="Fill-1362" d="M204.75,412c.21-1.07.17-1.84.54-2.26a1.59,1.59,0,0,1,1.56.12,2.12,2.12,0,0,1,.15,1.87c-.21.33-1.17.17-2.25.27"/><path id="Fill-1366" d="M384.21,815.58c1.08.19,2.15.1,2.24.45a5.08,5.08,0,0,1-.08,2.84c-.12.35-1.6.45-1.74.15a13.49,13.49,0,0,1-.42-3.44"/></g><g id="right-side" class="cls-4"><g id="Top-right-Bubble"><g id="Group-39-Copy-8"><ellipse id="Oval" class="cls-5" cx="590.3" cy="288.6" rx="119.81" ry="118.56"/><ellipse id="Oval-2" data-name="Oval" class="cls-6" cx="683.01" cy="229.62" rx="72.85" ry="71.62"/></g></g><g id="bottom-right-bubble"><g id="Group-39-Copy-8-2" data-name="Group-39-Copy-8"><ellipse id="Oval-3" data-name="Oval" class="cls-7" cx="743.96" cy="756.17" rx="68.47" ry="68.05"/><ellipse id="Oval-4" data-name="Oval" class="cls-8" cx="791.61" cy="733.85" rx="45.76" ry="45.74"/></g></g></g></g></g></g></g></svg>