<?xml version="1.0" encoding="UTF-8"?> <svg xmlns="http://www.w3.org/2000/svg" xmlns:xlink="http://www.w3.org/1999/xlink" width="1733" height="675"><defs><linearGradient x1="50%" y1="0%" x2="50%" y2="100%" id="a"><stop stop-color="#1D58F5" offset="0%"></stop><stop stop-color="#3B90F7" offset="100%"></stop></linearGradient><path d="M126.47 0h1653.556s284.798 460.248 0 557.08c-284.798 96.831-361.981-.299-551.186 41.58-189.205 41.877-266.98 200.03-551.185 129.608-284.205-70.423-266.957 182.425-551.186 182.425-284.228 0 0-910.693 0-910.693z" id="b"></path></defs><g fill="none" fill-rule="evenodd"><path d="M183.434 17.797L1836.99.191s249.595 319.403 44.005 486.657c-205.59 167.255-310.985-11.238-595.19 85.594-284.205 96.832-266.98 244.045-551.186 200.031-284.205-44.014-266.957 138.411-551.185 138.411-284.229 0 0-893.087 0-893.087z" fill="url(#a)" fill-rule="nonzero" opacity=".2" transform="rotate(8 1963.32 -797.24)"></path><path d="M125.47 0h1653.556s284.798 460.248 0 557.08c-284.798 96.831-416.046-26.544-605.25 15.334C984.57 614.292 970.42 739.126 676.654 728.268 382.889 717.41 405.668 896.127 125.469 910.693-154.729 925.259 125.47 0 125.47 0z" transform="rotate(8 1808.783 -321.668)" fill-rule="nonzero" fill="url(#a)"></path><g transform="rotate(8 1809.283 -328.818)"><mask id="c" fill="#fff"><use xlink:href="#b"></use></mask><g fill-rule="nonzero" opacity=".7" mask="url(#c)"><path d="M103.414-268.16L-97.06 220.413c-27.764 67.657-93.77 111.853-167.054 111.853h-371.604l200.48-488.566c27.764-67.664 93.77-111.86 167.047-111.86h371.604z" fill="#94C5FF" opacity=".06"></path><path d="M1389.05-852.942L948.715 220.201C887.73 368.808 742.75 465.885 581.784 465.885l-1307.93.164 440.35-1073.13C-224.813-755.7-79.831-852.777 81.12-852.777l1307.93-.164z" fill="#94C5FF" opacity=".06"></path><path d="M2097.165 115.392L1849.269 719.54c-34.332 83.661-115.953 138.312-206.572 138.312l-1674.672-.018-70.815-569.8c34.332-83.67 434.672-172.661 525.283-172.661l1674.672.018z" fill-opacity=".4" fill="#1A32AF" opacity=".31"></path><path d="M2170-185.773l-148.912 362.916c-20.624 50.256-69.654 83.085-124.09 83.085h-691.841l148.917-362.911c20.624-50.261 69.654-83.09 124.084-83.09H2170z" fill-opacity=".2" fill="#0092FF" opacity=".7"></path><path d="M2037.587 521.78l-148.913 362.917c-20.624 50.256-69.653 83.085-124.09 83.085H-380.577l148.917-362.911c20.624-50.261 69.654-83.09 124.085-83.09h2145.163z" fill-opacity=".2" fill="#0092FF" opacity=".4"></path></g></g><path d="M31.324-245.847L1671.24-33.151s324.545 298.96-10.373 389.675c-334.917 90.716-373.992 218.565-579.948 233.51-205.955 14.947-351.104-182.684-602.304-57.98C227.414 656.76 194.62 634.52-83.168 568.812c-277.787-65.71 114.492-814.659 114.492-814.659z" fill="#05F" fill-rule="nonzero" opacity=".1"></path></g></svg> 